<svg width="349" height="267" viewBox="0 0 349 267" fill="none" xmlns="http://www.w3.org/2000/svg">
<g clip-path="url(#clip0_100_313)">
<rect x="42.1934" y="89.2305" width="306.427" height="177.769" rx="6.9171" fill="#FBF5E5"/>
<rect x="54.6445" y="126.583" width="148.026" height="12.4508" rx="6.22539" fill="#F0E8D5"/>
<rect x="219.963" y="126.583" width="109.29" height="12.4508" rx="6.22539" fill="#F0E8D5"/>
<rect x="58.1035" y="150.793" width="109.29" height="12.4508" rx="6.22539" fill="#F0E8D5"/>
<rect x="188.145" y="150.793" width="148.026" height="12.4508" rx="6.22539" fill="#F0E8D5"/>
<rect x="63.6367" y="175.003" width="109.29" height="12.4508" rx="6.22539" fill="#F0E8D5"/>
<rect x="193.678" y="175.003" width="148.026" height="12.4508" rx="6.22539" fill="#F0E8D5"/>
<rect x="49.1113" y="199.212" width="109.29" height="12.4508" rx="6.22539" fill="#F0E8D5"/>
<rect x="179.152" y="199.212" width="148.026" height="12.4508" rx="6.22539" fill="#F0E8D5"/>
<rect x="70.5547" y="223.422" width="109.29" height="12.4508" rx="6.22539" fill="#F0E8D5"/>
<rect x="200.596" y="223.422" width="148.026" height="12.4508" rx="6.22539" fill="#F0E8D5"/>
</g>
<rect x="42.5392" y="89.5763" width="305.736" height="177.078" rx="6.57124" stroke="#EA4330" stroke-width="0.69171" stroke-dasharray="1.38 1.38"/>
<g clip-path="url(#clip1_100_313)">
<rect width="228.956" height="177.769" rx="6.9171" fill="#FBF5E5"/>
<g filter="url(#filter0_f_100_313)">
<path d="M19.5975 121.417C17.6855 114.916 16.2516 104.369 15.7736 99.9077C14.3396 97.5177 8.60377 99.9077 0 102.298C0 107.651 2.54927 119.505 3.8239 124.763C8.12579 124.285 17.3031 122.947 19.5975 121.417Z" fill="#9B4538"/>
<path d="M19.5975 121.417C17.6855 114.916 16.2516 104.369 15.7736 99.9077C14.3396 97.5177 8.60377 99.9077 0 102.298C0 107.651 2.54927 119.505 3.8239 124.763C8.12579 124.285 17.3031 122.947 19.5975 121.417Z" stroke="#9B4538" stroke-width="0.955975"/>
</g>
<g filter="url(#filter1_f_100_313)">
<path d="M228.955 75.5304C227.043 69.0298 225.609 58.4822 225.131 54.021C223.697 51.631 217.961 54.021 209.357 56.4109C209.357 61.7643 211.907 73.6184 213.181 78.8763C217.483 78.3983 226.661 77.0599 228.955 75.5304Z" fill="#9B4538"/>
<path d="M228.955 75.5304C227.043 69.0298 225.609 58.4822 225.131 54.021C223.697 51.631 217.961 54.021 209.357 56.4109C209.357 61.7643 211.907 73.6184 213.181 78.8763C217.483 78.3983 226.661 77.0599 228.955 75.5304Z" stroke="#9B4538" stroke-width="0.955975"/>
</g>
<path d="M17.207 109.434L211.748 69.2827" stroke="#9B4538" stroke-width="0.955975"/>
<path d="M76.9301 106.029V77.8477H65.8968V73.8481H92.5146V77.8477H81.4813V106.029H76.9301ZM120.6 73.8481H125.197V106.029H120.6V73.8481ZM102.119 106.029H97.5216V73.8481H102.119V106.029ZM121.013 91.6853H101.659V87.6857H121.013V91.6853ZM134.829 106.029V73.8481H147.379C150.199 73.8481 152.605 74.2925 154.597 75.1813C156.589 76.0701 158.122 77.3573 159.194 79.0429C160.267 80.7286 160.803 82.736 160.803 85.0653C160.803 87.3945 160.267 89.402 159.194 91.0876C158.122 92.7426 156.589 94.0145 154.597 94.9033C152.605 95.7921 150.199 96.2365 147.379 96.2365H137.358L139.426 94.1218V106.029H134.829ZM156.344 106.029L148.161 94.3516H153.08L161.355 106.029H156.344ZM139.426 94.5815L137.358 92.3289H147.242C150.184 92.3289 152.406 91.7006 153.907 90.444C155.44 89.1568 156.206 87.3639 156.206 85.0653C156.206 82.7667 155.44 80.9891 153.907 79.7325C152.406 78.4759 150.184 77.8477 147.242 77.8477H137.358L139.426 75.5491V94.5815Z" fill="#9B4538"/>
<path d="M61.5698 50.0529V48.0258H68.1395V50.0529H61.5698ZM73.416 55.7434L80.6695 39.6733L81.3045 40.7723H71.1447L72.3658 39.5756V43.8251H70.0212V38.6475H82.9164V40.3083L76.0048 55.7434H73.416ZM86.1921 46.0232C85.7362 46.0232 85.3454 45.8685 85.0198 45.5592C84.6942 45.2335 84.5313 44.8265 84.5313 44.338C84.5313 43.8496 84.6942 43.4507 85.0198 43.1413C85.3454 42.832 85.7362 42.6773 86.1921 42.6773C86.6317 42.6773 87.0062 42.832 87.3155 43.1413C87.6412 43.4507 87.804 43.8496 87.804 44.338C87.804 44.8265 87.6412 45.2335 87.3155 45.5592C87.0062 45.8685 86.6317 46.0232 86.1921 46.0232ZM86.1921 55.8899C85.7362 55.8899 85.3454 55.7353 85.0198 55.4259C84.6942 55.1003 84.5313 54.6932 84.5313 54.2048C84.5313 53.7163 84.6942 53.3174 85.0198 53.0081C85.3454 52.6987 85.7362 52.544 86.1921 52.544C86.6317 52.544 87.0062 52.6987 87.3155 53.0081C87.6412 53.3174 87.804 53.7163 87.804 54.2048C87.804 54.6932 87.6412 55.1003 87.3155 55.4259C87.0062 55.7353 86.6317 55.8899 86.1921 55.8899ZM103.657 55.9388C102.322 55.9388 101.125 55.5969 100.067 54.913C99.025 54.2292 98.1946 53.236 97.5759 51.9335C96.9735 50.6309 96.6723 49.0516 96.6723 47.1955C96.6723 45.3393 96.9735 43.76 97.5759 42.4575C98.1946 41.1549 99.025 40.1617 100.067 39.4779C101.125 38.7941 102.322 38.4522 103.657 38.4522C104.976 38.4522 106.165 38.7941 107.223 39.4779C108.281 40.1617 109.112 41.1549 109.714 42.4575C110.316 43.76 110.618 45.3393 110.618 47.1955C110.618 49.0516 110.316 50.6309 109.714 51.9335C109.112 53.236 108.281 54.2292 107.223 54.913C106.165 55.5969 104.976 55.9388 103.657 55.9388ZM103.657 53.7652C104.553 53.7652 105.334 53.5209 106.002 53.0325C106.686 52.544 107.215 51.8114 107.589 50.8344C107.98 49.8575 108.175 48.6445 108.175 47.1955C108.175 45.7464 107.98 44.5334 107.589 43.5565C107.215 42.5796 106.686 41.8469 106.002 41.3584C105.334 40.87 104.553 40.6258 103.657 40.6258C102.762 40.6258 101.972 40.87 101.288 41.3584C100.604 41.8469 100.067 42.5796 99.6763 43.5565C99.3018 44.5334 99.1145 45.7464 99.1145 47.1955C99.1145 48.6445 99.3018 49.8575 99.6763 50.8344C100.067 51.8114 100.604 52.544 101.288 53.0325C101.972 53.5209 102.762 53.7652 103.657 53.7652ZM119.947 55.9388C118.612 55.9388 117.415 55.5969 116.357 54.913C115.315 54.2292 114.484 53.236 113.866 51.9335C113.263 50.6309 112.962 49.0516 112.962 47.1955C112.962 45.3393 113.263 43.76 113.866 42.4575C114.484 41.1549 115.315 40.1617 116.357 39.4779C117.415 38.7941 118.612 38.4522 119.947 38.4522C121.266 38.4522 122.454 38.7941 123.513 39.4779C124.571 40.1617 125.401 41.1549 126.004 42.4575C126.606 43.76 126.907 45.3393 126.907 47.1955C126.907 49.0516 126.606 50.6309 126.004 51.9335C125.401 53.236 124.571 54.2292 123.513 54.913C122.454 55.5969 121.266 55.9388 119.947 55.9388ZM119.947 53.7652C120.842 53.7652 121.624 53.5209 122.291 53.0325C122.975 52.544 123.504 51.8114 123.879 50.8344C124.27 49.8575 124.465 48.6445 124.465 47.1955C124.465 45.7464 124.27 44.5334 123.879 43.5565C123.504 42.5796 122.975 41.8469 122.291 41.3584C121.624 40.87 120.842 40.6258 119.947 40.6258C119.051 40.6258 118.262 40.87 117.578 41.3584C116.894 41.8469 116.357 42.5796 115.966 43.5565C115.592 44.5334 115.404 45.7464 115.404 47.1955C115.404 48.6445 115.592 49.8575 115.966 50.8344C116.357 51.8114 116.894 52.544 117.578 53.0325C118.262 53.5209 119.051 53.7652 119.947 53.7652ZM127.864 55.7434L135.606 38.6475H138.024L145.79 55.7434H143.226L136.314 40.0152H137.291L130.38 55.7434H127.864ZM131.161 51.4694L131.821 49.5156H141.443L142.152 51.4694H131.161ZM148.341 55.7434V38.6475H150.343L158.012 51.5671H156.938L164.509 38.6475H166.511L166.536 55.7434H164.191L164.167 42.3354H164.728L157.988 53.6675H156.864L150.075 42.3354H150.685V55.7434H148.341Z" fill="black"/>
</g>
<rect x="0.345855" y="0.345855" width="228.264" height="177.078" rx="6.57124" stroke="#EA4330" stroke-width="0.69171" stroke-dasharray="1.38 1.38"/>
<defs>
<filter id="filter0_f_100_313" x="-0.67927" y="98.2389" width="21.0363" height="27.2462" filterUnits="userSpaceOnUse" color-interpolation-filters="sRGB">
<feFlood flood-opacity="0" result="BackgroundImageFix"/>
<feBlend mode="normal" in="SourceGraphic" in2="BackgroundImageFix" result="shape"/>
<feGaussianBlur stdDeviation="0.100377" result="effect1_foregroundBlur_100_313"/>
</filter>
<filter id="filter1_f_100_313" x="208.678" y="52.3522" width="21.0363" height="27.2462" filterUnits="userSpaceOnUse" color-interpolation-filters="sRGB">
<feFlood flood-opacity="0" result="BackgroundImageFix"/>
<feBlend mode="normal" in="SourceGraphic" in2="BackgroundImageFix" result="shape"/>
<feGaussianBlur stdDeviation="0.100377" result="effect1_foregroundBlur_100_313"/>
</filter>
<clipPath id="clip0_100_313">
<rect x="42.1934" y="89.2305" width="306.427" height="177.769" rx="6.9171" fill="white"/>
</clipPath>
<clipPath id="clip1_100_313">
<rect width="228.956" height="177.769" rx="6.9171" fill="white"/>
</clipPath>
</defs>
</svg>
