<svg width="490" height="284" viewBox="0 0 490 284" fill="none" xmlns="http://www.w3.org/2000/svg">
<g filter="url(#filter0_d_100_436)">
<rect x="53" y="0.100098" width="200" height="41" rx="20.5" fill="#F6EDDC"/>
<path d="M96.2007 15.6002L95.9807 14.5002C95.8982 14.0785 95.5223 13.7668 95.0823 13.7668H88.5007C87.9965 13.7668 87.584 14.1793 87.584 14.6835V28.4335C87.584 28.9377 87.9965 29.3502 88.5007 29.3502C89.0048 29.3502 89.4173 28.9377 89.4173 28.4335V22.9335H94.5507L94.7707 24.0335C94.8532 24.4643 95.229 24.7668 95.669 24.7668H100.417C100.921 24.7668 101.334 24.3543 101.334 23.8502V16.5168C101.334 16.0127 100.921 15.6002 100.417 15.6002H96.2007Z" fill="#E21212"/>
<path d="M126.74 25.6961C125.636 25.6961 124.768 25.3801 124.136 24.7481C123.504 24.1161 123.188 23.1921 123.188 21.9761V17.2001H124.388V21.9281C124.388 22.8641 124.592 23.5481 125 23.9801C125.416 24.4121 126 24.6281 126.752 24.6281C127.512 24.6281 128.096 24.4121 128.504 23.9801C128.92 23.5481 129.128 22.8641 129.128 21.9281V17.2001H130.292V21.9761C130.292 23.1921 129.976 24.1161 129.344 24.7481C128.72 25.3801 127.852 25.6961 126.74 25.6961ZM132.584 25.6001V19.2401H133.688V20.9681L133.58 20.5361C133.756 20.0961 134.052 19.7601 134.468 19.5281C134.884 19.2961 135.396 19.1801 136.004 19.1801V20.2961C135.956 20.2881 135.908 20.2841 135.86 20.2841C135.82 20.2841 135.78 20.2841 135.74 20.2841C135.124 20.2841 134.636 20.4681 134.276 20.8361C133.916 21.2041 133.736 21.7361 133.736 22.4321V25.6001H132.584ZM140.149 28.0001C139.565 28.0001 138.997 27.9161 138.445 27.7481C137.901 27.5881 137.457 27.3561 137.113 27.0521L137.665 26.1641C137.961 26.4201 138.325 26.6201 138.757 26.7641C139.189 26.9161 139.641 26.9921 140.113 26.9921C140.865 26.9921 141.417 26.8161 141.769 26.4641C142.121 26.1121 142.297 25.5761 142.297 24.8561V23.5121L142.417 22.2521L142.357 20.9801V19.2401H143.449V24.7361C143.449 25.8561 143.169 26.6801 142.609 27.2081C142.049 27.7361 141.229 28.0001 140.149 28.0001ZM140.005 25.3361C139.389 25.3361 138.837 25.2081 138.349 24.9521C137.869 24.6881 137.485 24.3241 137.197 23.8601C136.917 23.3961 136.777 22.8601 136.777 22.2521C136.777 21.6361 136.917 21.1001 137.197 20.6441C137.485 20.1801 137.869 19.8201 138.349 19.5641C138.837 19.3081 139.389 19.1801 140.005 19.1801C140.549 19.1801 141.045 19.2921 141.493 19.5161C141.941 19.7321 142.297 20.0681 142.561 20.5241C142.833 20.9801 142.969 21.5561 142.969 22.2521C142.969 22.9401 142.833 23.5121 142.561 23.9681C142.297 24.4241 141.941 24.7681 141.493 25.0001C141.045 25.2241 140.549 25.3361 140.005 25.3361ZM140.137 24.3281C140.561 24.3281 140.937 24.2401 141.265 24.0641C141.593 23.8881 141.849 23.6441 142.033 23.3321C142.225 23.0201 142.321 22.6601 142.321 22.2521C142.321 21.8441 142.225 21.4841 142.033 21.1721C141.849 20.8601 141.593 20.6201 141.265 20.4521C140.937 20.2761 140.561 20.1881 140.137 20.1881C139.713 20.1881 139.333 20.2761 138.997 20.4521C138.669 20.6201 138.409 20.8601 138.217 21.1721C138.033 21.4841 137.941 21.8441 137.941 22.2521C137.941 22.6601 138.033 23.0201 138.217 23.3321C138.409 23.6441 138.669 23.8881 138.997 24.0641C139.333 24.2401 139.713 24.3281 140.137 24.3281ZM148.483 25.6721C147.803 25.6721 147.203 25.5321 146.683 25.2521C146.171 24.9721 145.771 24.5881 145.483 24.1001C145.203 23.6121 145.063 23.0521 145.063 22.4201C145.063 21.7881 145.199 21.2281 145.471 20.7401C145.751 20.2521 146.131 19.8721 146.611 19.6001C147.099 19.3201 147.647 19.1801 148.255 19.1801C148.871 19.1801 149.415 19.3161 149.887 19.5881C150.359 19.8601 150.727 20.2441 150.991 20.7401C151.263 21.2281 151.399 21.8001 151.399 22.4561C151.399 22.5041 151.395 22.5601 151.387 22.6241C151.387 22.6881 151.383 22.7481 151.375 22.8041H145.963V21.9761H150.775L150.307 22.2641C150.315 21.8561 150.231 21.4921 150.055 21.1721C149.879 20.8521 149.635 20.6041 149.323 20.4281C149.019 20.2441 148.663 20.1521 148.255 20.1521C147.855 20.1521 147.499 20.2441 147.187 20.4281C146.875 20.6041 146.631 20.8561 146.455 21.1841C146.279 21.5041 146.191 21.8721 146.191 22.2881V22.4801C146.191 22.9041 146.287 23.2841 146.479 23.6201C146.679 23.9481 146.955 24.2041 147.307 24.3881C147.659 24.5721 148.063 24.6641 148.519 24.6641C148.895 24.6641 149.235 24.6001 149.539 24.4721C149.851 24.3441 150.123 24.1521 150.355 23.8961L150.991 24.6401C150.703 24.9761 150.343 25.2321 149.911 25.4081C149.487 25.5841 149.011 25.6721 148.483 25.6721ZM156.394 19.1801C156.914 19.1801 157.37 19.2801 157.762 19.4801C158.162 19.6801 158.474 19.9841 158.698 20.3921C158.922 20.8001 159.034 21.3161 159.034 21.9401V25.6001H157.882V22.0721C157.882 21.4561 157.73 20.9921 157.426 20.6801C157.13 20.3681 156.71 20.2121 156.166 20.2121C155.758 20.2121 155.402 20.2921 155.098 20.4521C154.794 20.6121 154.558 20.8481 154.39 21.1601C154.23 21.4721 154.15 21.8601 154.15 22.3241V25.6001H152.998V19.2401H154.102V20.9561L153.922 20.5001C154.13 20.0841 154.45 19.7601 154.882 19.5281C155.314 19.2961 155.818 19.1801 156.394 19.1801ZM163.35 25.6721C162.71 25.6721 162.214 25.5001 161.862 25.1561C161.51 24.8121 161.334 24.3201 161.334 23.6801V17.8481H162.486V23.6321C162.486 23.9761 162.57 24.2401 162.738 24.4241C162.914 24.6081 163.162 24.7001 163.482 24.7001C163.842 24.7001 164.142 24.6001 164.382 24.4001L164.742 25.2281C164.566 25.3801 164.354 25.4921 164.106 25.5641C163.866 25.6361 163.614 25.6721 163.35 25.6721ZM160.254 20.1881V19.2401H164.31V20.1881H160.254ZM177.314 19.1801C177.826 19.1801 178.278 19.2801 178.67 19.4801C179.062 19.6801 179.366 19.9841 179.582 20.3921C179.806 20.8001 179.918 21.3161 179.918 21.9401V25.6001H178.766V22.0721C178.766 21.4561 178.622 20.9921 178.334 20.6801C178.046 20.3681 177.642 20.2121 177.122 20.2121C176.738 20.2121 176.402 20.2921 176.114 20.4521C175.826 20.6121 175.602 20.8481 175.442 21.1601C175.29 21.4721 175.214 21.8601 175.214 22.3241V25.6001H174.062V22.0721C174.062 21.4561 173.918 20.9921 173.63 20.6801C173.35 20.3681 172.946 20.2121 172.418 20.2121C172.042 20.2121 171.71 20.2921 171.422 20.4521C171.134 20.6121 170.91 20.8481 170.75 21.1601C170.59 21.4721 170.51 21.8601 170.51 22.3241V25.6001H169.358V19.2401H170.462V20.9321L170.282 20.5001C170.482 20.0841 170.79 19.7601 171.206 19.5281C171.622 19.2961 172.106 19.1801 172.658 19.1801C173.266 19.1801 173.79 19.3321 174.23 19.6361C174.67 19.9321 174.958 20.3841 175.094 20.9921L174.626 20.8001C174.818 20.3121 175.154 19.9201 175.634 19.6241C176.114 19.3281 176.674 19.1801 177.314 19.1801ZM184.869 25.6721C184.189 25.6721 183.589 25.5321 183.069 25.2521C182.557 24.9721 182.157 24.5881 181.869 24.1001C181.589 23.6121 181.449 23.0521 181.449 22.4201C181.449 21.7881 181.585 21.2281 181.857 20.7401C182.137 20.2521 182.517 19.8721 182.997 19.6001C183.485 19.3201 184.033 19.1801 184.641 19.1801C185.257 19.1801 185.801 19.3161 186.273 19.5881C186.745 19.8601 187.113 20.2441 187.377 20.7401C187.649 21.2281 187.785 21.8001 187.785 22.4561C187.785 22.5041 187.781 22.5601 187.773 22.6241C187.773 22.6881 187.769 22.7481 187.761 22.8041H182.349V21.9761H187.161L186.693 22.2641C186.701 21.8561 186.617 21.4921 186.441 21.1721C186.265 20.8521 186.021 20.6041 185.709 20.4281C185.405 20.2441 185.049 20.1521 184.641 20.1521C184.241 20.1521 183.885 20.2441 183.573 20.4281C183.261 20.6041 183.017 20.8561 182.841 21.1841C182.665 21.5041 182.577 21.8721 182.577 22.2881V22.4801C182.577 22.9041 182.673 23.2841 182.865 23.6201C183.065 23.9481 183.341 24.2041 183.693 24.3881C184.045 24.5721 184.449 24.6641 184.905 24.6641C185.281 24.6641 185.621 24.6001 185.925 24.4721C186.237 24.3441 186.509 24.1521 186.741 23.8961L187.377 24.6401C187.089 24.9761 186.729 25.2321 186.297 25.4081C185.873 25.5841 185.397 25.6721 184.869 25.6721ZM191.209 25.6721C190.681 25.6721 190.177 25.6001 189.697 25.4561C189.225 25.3121 188.853 25.1361 188.581 24.9281L189.061 24.0161C189.333 24.2001 189.669 24.3561 190.069 24.4841C190.469 24.6121 190.877 24.6761 191.293 24.6761C191.829 24.6761 192.213 24.6001 192.445 24.4481C192.685 24.2961 192.805 24.0841 192.805 23.8121C192.805 23.6121 192.733 23.4561 192.589 23.3441C192.445 23.2321 192.253 23.1481 192.013 23.0921C191.781 23.0361 191.521 22.9881 191.233 22.9481C190.945 22.9001 190.657 22.8441 190.369 22.7801C190.081 22.7081 189.817 22.6121 189.577 22.4921C189.337 22.3641 189.145 22.1921 189.001 21.9761C188.857 21.7521 188.785 21.4561 188.785 21.0881C188.785 20.7041 188.893 20.3681 189.109 20.0801C189.325 19.7921 189.629 19.5721 190.021 19.4201C190.421 19.2601 190.893 19.1801 191.437 19.1801C191.853 19.1801 192.273 19.2321 192.697 19.3361C193.129 19.4321 193.481 19.5721 193.753 19.7561L193.261 20.6681C192.973 20.4761 192.673 20.3441 192.361 20.2721C192.049 20.2001 191.737 20.1641 191.425 20.1641C190.921 20.1641 190.545 20.2481 190.297 20.4161C190.049 20.5761 189.925 20.7841 189.925 21.0401C189.925 21.2561 189.997 21.4241 190.141 21.5441C190.293 21.6561 190.485 21.7441 190.717 21.8081C190.957 21.8721 191.221 21.9281 191.509 21.9761C191.797 22.0161 192.085 22.0721 192.373 22.1441C192.661 22.2081 192.921 22.3001 193.153 22.4201C193.393 22.5401 193.585 22.7081 193.729 22.9241C193.881 23.1401 193.957 23.4281 193.957 23.7881C193.957 24.1721 193.845 24.5041 193.621 24.7841C193.397 25.0641 193.081 25.2841 192.673 25.4441C192.265 25.5961 191.777 25.6721 191.209 25.6721ZM197.221 25.6721C196.693 25.6721 196.189 25.6001 195.709 25.4561C195.237 25.3121 194.865 25.1361 194.593 24.9281L195.073 24.0161C195.345 24.2001 195.681 24.3561 196.081 24.4841C196.481 24.6121 196.889 24.6761 197.305 24.6761C197.841 24.6761 198.225 24.6001 198.457 24.4481C198.697 24.2961 198.817 24.0841 198.817 23.8121C198.817 23.6121 198.745 23.4561 198.601 23.3441C198.457 23.2321 198.265 23.1481 198.025 23.0921C197.793 23.0361 197.533 22.9881 197.245 22.9481C196.957 22.9001 196.669 22.8441 196.381 22.7801C196.093 22.7081 195.829 22.6121 195.589 22.4921C195.349 22.3641 195.157 22.1921 195.013 21.9761C194.869 21.7521 194.797 21.4561 194.797 21.0881C194.797 20.7041 194.905 20.3681 195.121 20.0801C195.337 19.7921 195.641 19.5721 196.033 19.4201C196.433 19.2601 196.905 19.1801 197.449 19.1801C197.865 19.1801 198.285 19.2321 198.709 19.3361C199.141 19.4321 199.493 19.5721 199.765 19.7561L199.273 20.6681C198.985 20.4761 198.685 20.3441 198.373 20.2721C198.061 20.2001 197.749 20.1641 197.437 20.1641C196.933 20.1641 196.557 20.2481 196.309 20.4161C196.061 20.5761 195.937 20.7841 195.937 21.0401C195.937 21.2561 196.009 21.4241 196.153 21.5441C196.305 21.6561 196.497 21.7441 196.729 21.8081C196.969 21.8721 197.233 21.9281 197.521 21.9761C197.809 22.0161 198.097 22.0721 198.385 22.1441C198.673 22.2081 198.933 22.3001 199.165 22.4201C199.405 22.5401 199.597 22.7081 199.741 22.9241C199.893 23.1401 199.969 23.4281 199.969 23.7881C199.969 24.1721 199.857 24.5041 199.633 24.7841C199.409 25.0641 199.093 25.2841 198.685 25.4441C198.277 25.5961 197.789 25.6721 197.221 25.6721ZM205.356 25.6001V24.2561L205.296 24.0041V21.7121C205.296 21.2241 205.152 20.8481 204.864 20.5841C204.584 20.3121 204.16 20.1761 203.592 20.1761C203.216 20.1761 202.848 20.2401 202.488 20.3681C202.128 20.4881 201.824 20.6521 201.576 20.8601L201.096 19.9961C201.424 19.7321 201.816 19.5321 202.272 19.3961C202.736 19.2521 203.22 19.1801 203.724 19.1801C204.596 19.1801 205.268 19.3921 205.74 19.8161C206.212 20.2401 206.448 20.8881 206.448 21.7601V25.6001H205.356ZM203.268 25.6721C202.796 25.6721 202.38 25.5921 202.02 25.4321C201.668 25.2721 201.396 25.0521 201.204 24.7721C201.012 24.4841 200.916 24.1601 200.916 23.8001C200.916 23.4561 200.996 23.1441 201.156 22.8641C201.324 22.5841 201.592 22.3601 201.96 22.1921C202.336 22.0241 202.84 21.9401 203.472 21.9401H205.488V22.7681H203.52C202.944 22.7681 202.556 22.8641 202.356 23.0561C202.156 23.2481 202.056 23.4801 202.056 23.7521C202.056 24.0641 202.18 24.3161 202.428 24.5081C202.676 24.6921 203.02 24.7841 203.46 24.7841C203.892 24.7841 204.268 24.6881 204.588 24.4961C204.916 24.3041 205.152 24.0241 205.296 23.6561L205.524 24.4481C205.372 24.8241 205.104 25.1241 204.72 25.3481C204.336 25.5641 203.852 25.6721 203.268 25.6721ZM211.364 28.0001C210.78 28.0001 210.212 27.9161 209.66 27.7481C209.116 27.5881 208.672 27.3561 208.328 27.0521L208.88 26.1641C209.176 26.4201 209.54 26.6201 209.972 26.7641C210.404 26.9161 210.856 26.9921 211.328 26.9921C212.08 26.9921 212.632 26.8161 212.984 26.4641C213.336 26.1121 213.512 25.5761 213.512 24.8561V23.5121L213.632 22.2521L213.572 20.9801V19.2401H214.664V24.7361C214.664 25.8561 214.384 26.6801 213.824 27.2081C213.264 27.7361 212.444 28.0001 211.364 28.0001ZM211.22 25.3361C210.604 25.3361 210.052 25.2081 209.564 24.9521C209.084 24.6881 208.7 24.3241 208.412 23.8601C208.132 23.3961 207.992 22.8601 207.992 22.2521C207.992 21.6361 208.132 21.1001 208.412 20.6441C208.7 20.1801 209.084 19.8201 209.564 19.5641C210.052 19.3081 210.604 19.1801 211.22 19.1801C211.764 19.1801 212.26 19.2921 212.708 19.5161C213.156 19.7321 213.512 20.0681 213.776 20.5241C214.048 20.9801 214.184 21.5561 214.184 22.2521C214.184 22.9401 214.048 23.5121 213.776 23.9681C213.512 24.4241 213.156 24.7681 212.708 25.0001C212.26 25.2241 211.764 25.3361 211.22 25.3361ZM211.352 24.3281C211.776 24.3281 212.152 24.2401 212.48 24.0641C212.808 23.8881 213.064 23.6441 213.248 23.3321C213.44 23.0201 213.536 22.6601 213.536 22.2521C213.536 21.8441 213.44 21.4841 213.248 21.1721C213.064 20.8601 212.808 20.6201 212.48 20.4521C212.152 20.2761 211.776 20.1881 211.352 20.1881C210.928 20.1881 210.548 20.2761 210.212 20.4521C209.884 20.6201 209.624 20.8601 209.432 21.1721C209.248 21.4841 209.156 21.8441 209.156 22.2521C209.156 22.6601 209.248 23.0201 209.432 23.3321C209.624 23.6441 209.884 23.8881 210.212 24.0641C210.548 24.2401 210.928 24.3281 211.352 24.3281ZM219.697 25.6721C219.017 25.6721 218.417 25.5321 217.897 25.2521C217.385 24.9721 216.985 24.5881 216.697 24.1001C216.417 23.6121 216.277 23.0521 216.277 22.4201C216.277 21.7881 216.413 21.2281 216.685 20.7401C216.965 20.2521 217.345 19.8721 217.825 19.6001C218.313 19.3201 218.861 19.1801 219.469 19.1801C220.085 19.1801 220.629 19.3161 221.101 19.5881C221.573 19.8601 221.941 20.2441 222.205 20.7401C222.477 21.2281 222.613 21.8001 222.613 22.4561C222.613 22.5041 222.609 22.5601 222.601 22.6241C222.601 22.6881 222.597 22.7481 222.589 22.8041H217.177V21.9761H221.989L221.521 22.2641C221.529 21.8561 221.445 21.4921 221.269 21.1721C221.093 20.8521 220.849 20.6041 220.537 20.4281C220.233 20.2441 219.877 20.1521 219.469 20.1521C219.069 20.1521 218.713 20.2441 218.401 20.4281C218.089 20.6041 217.845 20.8561 217.669 21.1841C217.493 21.5041 217.405 21.8721 217.405 22.2881V22.4801C217.405 22.9041 217.501 23.2841 217.693 23.6201C217.893 23.9481 218.169 24.2041 218.521 24.3881C218.873 24.5721 219.277 24.6641 219.733 24.6641C220.109 24.6641 220.449 24.6001 220.753 24.4721C221.065 24.3441 221.337 24.1521 221.569 23.8961L222.205 24.6401C221.917 24.9761 221.557 25.2321 221.125 25.4081C220.701 25.5841 220.225 25.6721 219.697 25.6721Z" fill="#E21212"/>
</g>
<rect x="0.5" y="78.6001" width="473" height="117" rx="23.5" fill="#FBF5E5"/>
<rect x="0.5" y="78.6001" width="473" height="117" rx="23.5" stroke="#BE1A1A"/>
<circle cx="42" cy="117.1" r="15" fill="#D9D9D9"/>
<rect x="73" y="109.1" width="215" height="16" rx="8" fill="#D9D9D9"/>
<rect x="68" y="137.1" width="390" height="16" rx="8" fill="#D9D9D9"/>
<rect x="68" y="165.1" width="215" height="16" rx="8" fill="#D9D9D9"/>
<rect x="16.5" y="165.6" width="473" height="117" rx="23.5" fill="#FBF5E5"/>
<rect x="16.5" y="165.6" width="473" height="117" rx="23.5" stroke="#BE1A1A"/>
<path d="M49.3387 202.912C49.3387 204.348 48.1677 205.521 46.7316 205.521C45.2955 205.521 44.123 204.348 44.123 202.912C44.123 201.477 45.2959 200.304 46.7318 200.304H49.3389L49.3387 202.912ZM50.653 202.912C50.653 201.477 51.8258 200.304 53.2617 200.304C54.6976 200.304 55.8705 201.476 55.8705 202.912V209.443C55.8705 210.879 54.6978 212.051 53.2617 212.051C51.8258 212.051 50.653 210.879 50.653 209.443V202.912Z" fill="#DE1C59"/>
<path d="M53.2617 192.439C51.8258 192.439 50.653 191.268 50.653 189.832C50.653 188.396 51.8258 187.224 53.2617 187.224C54.6976 187.224 55.8705 188.396 55.8705 189.832V192.44L53.2617 192.439ZM53.2617 193.754C54.6976 193.754 55.8705 194.926 55.8705 196.362C55.8705 197.798 54.6978 198.971 53.2617 198.971H46.7316C45.2957 198.971 44.123 197.798 44.123 196.362C44.123 194.926 45.2959 193.754 46.7318 193.754H53.2617Z" fill="#35C5F0"/>
<path d="M63.7348 196.362C63.7348 194.926 64.9059 193.754 66.342 193.754C67.7781 193.754 68.9507 194.926 68.9507 196.362C68.9507 197.798 67.7779 198.971 66.342 198.971H63.7348V196.362ZM62.4206 196.362C62.4206 197.798 61.2478 198.971 59.8119 198.971C58.3759 198.971 57.2031 197.798 57.2031 196.362V189.832C57.2031 188.396 58.3758 187.224 59.8119 187.224C61.2478 187.224 62.4206 188.396 62.4206 189.832V196.362Z" fill="#2EB57D"/>
<path d="M59.8119 206.835C61.2478 206.835 62.4206 208.006 62.4206 209.443C62.4206 210.879 61.2478 212.051 59.8119 212.051C58.3759 212.051 57.2031 210.879 57.2031 209.443V206.835H59.8119ZM59.8119 205.521C58.3759 205.521 57.2031 204.348 57.2031 202.912C57.2031 201.477 58.3758 200.304 59.8119 200.304H66.342C67.7779 200.304 68.9507 201.476 68.9507 202.912C68.9507 204.348 67.7779 205.521 66.342 205.521H59.8119Z" fill="#EBB02E"/>
<path d="M87.5632 208.268C86.4432 208.268 85.3722 208.1 84.3502 207.764C83.3282 207.414 82.5232 206.966 81.9352 206.42L82.7122 204.782C83.2722 205.272 83.9862 205.678 84.8542 206C85.7222 206.322 86.6252 206.483 87.5632 206.483C88.4172 206.483 89.1102 206.385 89.6422 206.189C90.1742 205.993 90.5662 205.727 90.8182 205.391C91.0702 205.041 91.1962 204.649 91.1962 204.215C91.1962 203.711 91.0282 203.305 90.6922 202.997C90.3702 202.689 89.9432 202.444 89.4112 202.262C88.8932 202.066 88.3192 201.898 87.6892 201.758C87.0592 201.618 86.4222 201.457 85.7782 201.275C85.1482 201.079 84.5672 200.834 84.0352 200.54C83.5172 200.246 83.0972 199.854 82.7752 199.364C82.4532 198.86 82.2922 198.216 82.2922 197.432C82.2922 196.676 82.4882 195.983 82.8802 195.353C83.2862 194.709 83.9022 194.198 84.7282 193.82C85.5682 193.428 86.6322 193.232 87.9202 193.232C88.7742 193.232 89.6212 193.344 90.4612 193.568C91.3012 193.792 92.0292 194.114 92.6452 194.534L91.9522 196.214C91.3222 195.794 90.6572 195.493 89.9572 195.311C89.2572 195.115 88.5782 195.017 87.9202 195.017C87.0942 195.017 86.4152 195.122 85.8832 195.332C85.3512 195.542 84.9592 195.822 84.7072 196.172C84.4692 196.522 84.3502 196.914 84.3502 197.348C84.3502 197.866 84.5112 198.279 84.8332 198.587C85.1692 198.895 85.5962 199.14 86.1142 199.322C86.6462 199.504 87.2272 199.672 87.8572 199.826C88.4872 199.966 89.1172 200.127 89.7472 200.309C90.3912 200.491 90.9722 200.729 91.4902 201.023C92.0222 201.317 92.4492 201.709 92.7712 202.199C93.0932 202.689 93.2542 203.319 93.2542 204.089C93.2542 204.831 93.0512 205.524 92.6452 206.168C92.2392 206.798 91.6092 207.309 90.7552 207.701C89.9152 208.079 88.8512 208.268 87.5632 208.268ZM96.0282 208.1V192.518H98.0442V208.1H96.0282ZM108.802 208.1V205.748L108.697 205.307V201.296C108.697 200.442 108.445 199.784 107.941 199.322C107.451 198.846 106.709 198.608 105.715 198.608C105.057 198.608 104.413 198.72 103.783 198.944C103.153 199.154 102.621 199.441 102.187 199.805L101.347 198.293C101.921 197.831 102.607 197.481 103.405 197.243C104.217 196.991 105.064 196.865 105.946 196.865C107.472 196.865 108.648 197.236 109.474 197.978C110.3 198.72 110.713 199.854 110.713 201.38V208.1H108.802ZM105.148 208.226C104.322 208.226 103.594 208.086 102.964 207.806C102.348 207.526 101.872 207.141 101.536 206.651C101.2 206.147 101.032 205.58 101.032 204.95C101.032 204.348 101.172 203.802 101.452 203.312C101.746 202.822 102.215 202.43 102.859 202.136C103.517 201.842 104.399 201.695 105.505 201.695H109.033V203.144H105.589C104.581 203.144 103.902 203.312 103.552 203.648C103.202 203.984 103.027 204.39 103.027 204.866C103.027 205.412 103.244 205.853 103.678 206.189C104.112 206.511 104.714 206.672 105.484 206.672C106.24 206.672 106.898 206.504 107.458 206.168C108.032 205.832 108.445 205.342 108.697 204.698L109.096 206.084C108.83 206.742 108.361 207.267 107.689 207.659C107.017 208.037 106.17 208.226 105.148 208.226ZM119.295 208.226C118.161 208.226 117.146 207.981 116.25 207.491C115.368 207.001 114.675 206.329 114.171 205.475C113.667 204.621 113.415 203.641 113.415 202.535C113.415 201.429 113.667 200.449 114.171 199.595C114.675 198.741 115.368 198.076 116.25 197.6C117.146 197.11 118.161 196.865 119.295 196.865C120.303 196.865 121.199 197.068 121.983 197.474C122.781 197.866 123.397 198.454 123.831 199.238L122.298 200.225C121.934 199.679 121.486 199.28 120.954 199.028C120.436 198.762 119.876 198.629 119.274 198.629C118.546 198.629 117.895 198.79 117.321 199.112C116.747 199.434 116.292 199.889 115.956 200.477C115.62 201.051 115.452 201.737 115.452 202.535C115.452 203.333 115.62 204.026 115.956 204.614C116.292 205.202 116.747 205.657 117.321 205.979C117.895 206.301 118.546 206.462 119.274 206.462C119.876 206.462 120.436 206.336 120.954 206.084C121.486 205.818 121.934 205.412 122.298 204.866L123.831 205.832C123.397 206.602 122.781 207.197 121.983 207.617C121.199 208.023 120.303 208.226 119.295 208.226ZM127.936 205.412L127.978 202.829L134.383 196.97H136.819L131.905 201.8L130.813 202.724L127.936 205.412ZM126.298 208.1V192.518H128.314V208.1H126.298ZM134.803 208.1L130.435 202.682L131.737 201.065L137.281 208.1H134.803Z" fill="black"/>
<path d="M87.3442 239.22C86.5442 239.22 85.8042 239.09 85.1242 238.83C84.4542 238.56 83.8692 238.185 83.3692 237.705C82.8792 237.215 82.4942 236.645 82.2142 235.995C81.9342 235.345 81.7942 234.63 81.7942 233.85C81.7942 233.07 81.9342 232.355 82.2142 231.705C82.4942 231.055 82.8842 230.49 83.3842 230.01C83.8842 229.52 84.4692 229.145 85.1392 228.885C85.8192 228.615 86.5592 228.48 87.3592 228.48C88.1692 228.48 88.9142 228.62 89.5942 228.9C90.2842 229.17 90.8692 229.575 91.3492 230.115L90.3742 231.06C89.9742 230.64 89.5242 230.33 89.0242 230.13C88.5242 229.92 87.9892 229.815 87.4192 229.815C86.8292 229.815 86.2792 229.915 85.7692 230.115C85.2692 230.315 84.8342 230.595 84.4642 230.955C84.0942 231.315 83.8042 231.745 83.5942 232.245C83.3942 232.735 83.2942 233.27 83.2942 233.85C83.2942 234.43 83.3942 234.97 83.5942 235.47C83.8042 235.96 84.0942 236.385 84.4642 236.745C84.8342 237.105 85.2692 237.385 85.7692 237.585C86.2792 237.785 86.8292 237.885 87.4192 237.885C87.9892 237.885 88.5242 237.785 89.0242 237.585C89.5242 237.375 89.9742 237.055 90.3742 236.625L91.3492 237.57C90.8692 238.11 90.2842 238.52 89.5942 238.8C88.9142 239.08 88.1642 239.22 87.3442 239.22ZM97.5241 231.075C98.1741 231.075 98.7441 231.2 99.2341 231.45C99.7341 231.7 100.124 232.08 100.404 232.59C100.684 233.1 100.824 233.745 100.824 234.525V239.1H99.3841V234.69C99.3841 233.92 99.1941 233.34 98.8141 232.95C98.4441 232.56 97.9191 232.365 97.2391 232.365C96.7291 232.365 96.2841 232.465 95.9041 232.665C95.5241 232.865 95.2291 233.16 95.0191 233.55C94.8191 233.94 94.7191 234.425 94.7191 235.005V239.1H93.2791V227.97H94.7191V233.295L94.4341 232.725C94.6941 232.205 95.0941 231.8 95.6341 231.51C96.1741 231.22 96.8041 231.075 97.5241 231.075ZM108.424 239.1V237.42L108.349 237.105V234.24C108.349 233.63 108.169 233.16 107.809 232.83C107.459 232.49 106.929 232.32 106.219 232.32C105.749 232.32 105.289 232.4 104.839 232.56C104.389 232.71 104.009 232.915 103.699 233.175L103.099 232.095C103.509 231.765 103.999 231.515 104.569 231.345C105.149 231.165 105.754 231.075 106.384 231.075C107.474 231.075 108.314 231.34 108.904 231.87C109.494 232.4 109.789 233.21 109.789 234.3V239.1H108.424ZM105.814 239.19C105.224 239.19 104.704 239.09 104.254 238.89C103.814 238.69 103.474 238.415 103.234 238.065C102.994 237.705 102.874 237.3 102.874 236.85C102.874 236.42 102.974 236.03 103.174 235.68C103.384 235.33 103.719 235.05 104.179 234.84C104.649 234.63 105.279 234.525 106.069 234.525H108.589V235.56H106.129C105.409 235.56 104.924 235.68 104.674 235.92C104.424 236.16 104.299 236.45 104.299 236.79C104.299 237.18 104.454 237.495 104.764 237.735C105.074 237.965 105.504 238.08 106.054 238.08C106.594 238.08 107.064 237.96 107.464 237.72C107.874 237.48 108.169 237.13 108.349 236.67L108.634 237.66C108.444 238.13 108.109 238.505 107.629 238.785C107.149 239.055 106.544 239.19 105.814 239.19ZM116.699 231.075C117.349 231.075 117.919 231.2 118.409 231.45C118.909 231.7 119.299 232.08 119.579 232.59C119.859 233.1 119.999 233.745 119.999 234.525V239.1H118.559V234.69C118.559 233.92 118.369 233.34 117.989 232.95C117.619 232.56 117.094 232.365 116.414 232.365C115.904 232.365 115.459 232.465 115.079 232.665C114.699 232.865 114.404 233.16 114.194 233.55C113.994 233.94 113.894 234.425 113.894 235.005V239.1H112.454V231.15H113.834V233.295L113.609 232.725C113.869 232.205 114.269 231.8 114.809 231.51C115.349 231.22 115.979 231.075 116.699 231.075ZM126.144 242.1C125.414 242.1 124.704 241.995 124.014 241.785C123.334 241.585 122.779 241.295 122.349 240.915L123.039 239.805C123.409 240.125 123.864 240.375 124.404 240.555C124.944 240.745 125.509 240.84 126.099 240.84C127.039 240.84 127.729 240.62 128.169 240.18C128.609 239.74 128.829 239.07 128.829 238.17V236.49L128.979 234.915L128.904 233.325V231.15H130.269V238.02C130.269 239.42 129.919 240.45 129.219 241.11C128.519 241.77 127.494 242.1 126.144 242.1ZM125.964 238.77C125.194 238.77 124.504 238.61 123.894 238.29C123.294 237.96 122.814 237.505 122.454 236.925C122.104 236.345 121.929 235.675 121.929 234.915C121.929 234.145 122.104 233.475 122.454 232.905C122.814 232.325 123.294 231.875 123.894 231.555C124.504 231.235 125.194 231.075 125.964 231.075C126.644 231.075 127.264 231.215 127.824 231.495C128.384 231.765 128.829 232.185 129.159 232.755C129.499 233.325 129.669 234.045 129.669 234.915C129.669 235.775 129.499 236.49 129.159 237.06C128.829 237.63 128.384 238.06 127.824 238.35C127.264 238.63 126.644 238.77 125.964 238.77ZM126.129 237.51C126.659 237.51 127.129 237.4 127.539 237.18C127.949 236.96 128.269 236.655 128.499 236.265C128.739 235.875 128.859 235.425 128.859 234.915C128.859 234.405 128.739 233.955 128.499 233.565C128.269 233.175 127.949 232.875 127.539 232.665C127.129 232.445 126.659 232.335 126.129 232.335C125.599 232.335 125.124 232.445 124.704 232.665C124.294 232.875 123.969 233.175 123.729 233.565C123.499 233.955 123.384 234.405 123.384 234.915C123.384 235.425 123.499 235.875 123.729 236.265C123.969 236.655 124.294 236.96 124.704 237.18C125.124 237.4 125.599 237.51 126.129 237.51ZM136.56 239.19C135.71 239.19 134.96 239.015 134.31 238.665C133.67 238.315 133.17 237.835 132.81 237.225C132.46 236.615 132.285 235.915 132.285 235.125C132.285 234.335 132.455 233.635 132.795 233.025C133.145 232.415 133.62 231.94 134.22 231.6C134.83 231.25 135.515 231.075 136.275 231.075C137.045 231.075 137.725 231.245 138.315 231.585C138.905 231.925 139.365 232.405 139.695 233.025C140.035 233.635 140.205 234.35 140.205 235.17C140.205 235.23 140.2 235.3 140.19 235.38C140.19 235.46 140.185 235.535 140.175 235.605H133.41V234.57H139.425L138.84 234.93C138.85 234.42 138.745 233.965 138.525 233.565C138.305 233.165 138 232.855 137.61 232.635C137.23 232.405 136.785 232.29 136.275 232.29C135.775 232.29 135.33 232.405 134.94 232.635C134.55 232.855 134.245 233.17 134.025 233.58C133.805 233.98 133.695 234.44 133.695 234.96V235.2C133.695 235.73 133.815 236.205 134.055 236.625C134.305 237.035 134.65 237.355 135.09 237.585C135.53 237.815 136.035 237.93 136.605 237.93C137.075 237.93 137.5 237.85 137.88 237.69C138.27 237.53 138.61 237.29 138.9 236.97L139.695 237.9C139.335 238.32 138.885 238.64 138.345 238.86C137.815 239.08 137.22 239.19 136.56 239.19ZM144.485 239.19C143.825 239.19 143.195 239.1 142.595 238.92C142.005 238.74 141.54 238.52 141.2 238.26L141.8 237.12C142.14 237.35 142.56 237.545 143.06 237.705C143.56 237.865 144.07 237.945 144.59 237.945C145.26 237.945 145.74 237.85 146.03 237.66C146.33 237.47 146.48 237.205 146.48 236.865C146.48 236.615 146.39 236.42 146.21 236.28C146.03 236.14 145.79 236.035 145.49 235.965C145.2 235.895 144.875 235.835 144.515 235.785C144.155 235.725 143.795 235.655 143.435 235.575C143.075 235.485 142.745 235.365 142.445 235.215C142.145 235.055 141.905 234.84 141.725 234.57C141.545 234.29 141.455 233.92 141.455 233.46C141.455 232.98 141.59 232.56 141.86 232.2C142.13 231.84 142.51 231.565 143 231.375C143.5 231.175 144.09 231.075 144.77 231.075C145.29 231.075 145.815 231.14 146.345 231.27C146.885 231.39 147.325 231.565 147.665 231.795L147.05 232.935C146.69 232.695 146.315 232.53 145.925 232.44C145.535 232.35 145.145 232.305 144.755 232.305C144.125 232.305 143.655 232.41 143.345 232.62C143.035 232.82 142.88 233.08 142.88 233.4C142.88 233.67 142.97 233.88 143.15 234.03C143.34 234.17 143.58 234.28 143.87 234.36C144.17 234.44 144.5 234.51 144.86 234.57C145.22 234.62 145.58 234.69 145.94 234.78C146.3 234.86 146.625 234.975 146.915 235.125C147.215 235.275 147.455 235.485 147.635 235.755C147.825 236.025 147.92 236.385 147.92 236.835C147.92 237.315 147.78 237.73 147.5 238.08C147.22 238.43 146.825 238.705 146.315 238.905C145.805 239.095 145.195 239.19 144.485 239.19ZM158.683 239.1V237.42L158.608 237.105V234.24C158.608 233.63 158.428 233.16 158.068 232.83C157.718 232.49 157.188 232.32 156.478 232.32C156.008 232.32 155.548 232.4 155.098 232.56C154.648 232.71 154.268 232.915 153.958 233.175L153.358 232.095C153.768 231.765 154.258 231.515 154.828 231.345C155.408 231.165 156.013 231.075 156.643 231.075C157.733 231.075 158.573 231.34 159.163 231.87C159.753 232.4 160.048 233.21 160.048 234.3V239.1H158.683ZM156.073 239.19C155.483 239.19 154.963 239.09 154.513 238.89C154.073 238.69 153.733 238.415 153.493 238.065C153.253 237.705 153.133 237.3 153.133 236.85C153.133 236.42 153.233 236.03 153.433 235.68C153.643 235.33 153.978 235.05 154.438 234.84C154.908 234.63 155.538 234.525 156.328 234.525H158.848V235.56H156.388C155.668 235.56 155.183 235.68 154.933 235.92C154.683 236.16 154.558 236.45 154.558 236.79C154.558 237.18 154.713 237.495 155.023 237.735C155.333 237.965 155.763 238.08 156.313 238.08C156.853 238.08 157.323 237.96 157.723 237.72C158.133 237.48 158.428 237.13 158.608 236.67L158.893 237.66C158.703 238.13 158.368 238.505 157.888 238.785C157.408 239.055 156.803 239.19 156.073 239.19ZM166.928 239.19C166.268 239.19 165.663 239.04 165.113 238.74C164.573 238.43 164.138 237.975 163.808 237.375C163.488 236.775 163.328 236.025 163.328 235.125C163.328 234.225 163.483 233.475 163.793 232.875C164.113 232.275 164.543 231.825 165.083 231.525C165.633 231.225 166.248 231.075 166.928 231.075C167.708 231.075 168.398 231.245 168.998 231.585C169.598 231.925 170.073 232.4 170.423 233.01C170.773 233.61 170.948 234.315 170.948 235.125C170.948 235.935 170.773 236.645 170.423 237.255C170.073 237.865 169.598 238.34 168.998 238.68C168.398 239.02 167.708 239.19 166.928 239.19ZM162.713 242.01V231.15H164.093V233.295L164.003 235.14L164.153 236.985V242.01H162.713ZM166.808 237.93C167.318 237.93 167.773 237.815 168.173 237.585C168.583 237.355 168.903 237.03 169.133 236.61C169.373 236.18 169.493 235.685 169.493 235.125C169.493 234.555 169.373 234.065 169.133 233.655C168.903 233.235 168.583 232.91 168.173 232.68C167.773 232.45 167.318 232.335 166.808 232.335C166.308 232.335 165.853 232.45 165.443 232.68C165.043 232.91 164.723 233.235 164.483 233.655C164.253 234.065 164.138 234.555 164.138 235.125C164.138 235.685 164.253 236.18 164.483 236.61C164.723 237.03 165.043 237.355 165.443 237.585C165.853 237.815 166.308 237.93 166.808 237.93ZM177.152 239.19C176.492 239.19 175.887 239.04 175.337 238.74C174.797 238.43 174.362 237.975 174.032 237.375C173.712 236.775 173.552 236.025 173.552 235.125C173.552 234.225 173.707 233.475 174.017 232.875C174.337 232.275 174.767 231.825 175.307 231.525C175.857 231.225 176.472 231.075 177.152 231.075C177.932 231.075 178.622 231.245 179.222 231.585C179.822 231.925 180.297 232.4 180.647 233.01C180.997 233.61 181.172 234.315 181.172 235.125C181.172 235.935 180.997 236.645 180.647 237.255C180.297 237.865 179.822 238.34 179.222 238.68C178.622 239.02 177.932 239.19 177.152 239.19ZM172.937 242.01V231.15H174.317V233.295L174.227 235.14L174.377 236.985V242.01H172.937ZM177.032 237.93C177.542 237.93 177.997 237.815 178.397 237.585C178.807 237.355 179.127 237.03 179.357 236.61C179.597 236.18 179.717 235.685 179.717 235.125C179.717 234.555 179.597 234.065 179.357 233.655C179.127 233.235 178.807 232.91 178.397 232.68C177.997 232.45 177.542 232.335 177.032 232.335C176.532 232.335 176.077 232.45 175.667 232.68C175.267 232.91 174.947 233.235 174.707 233.655C174.477 234.065 174.362 234.555 174.362 235.125C174.362 235.685 174.477 236.18 174.707 236.61C174.947 237.03 175.267 237.355 175.667 237.585C176.077 237.815 176.532 237.93 177.032 237.93ZM183.162 239.1V231.15H184.542V233.31L184.407 232.77C184.627 232.22 184.997 231.8 185.517 231.51C186.037 231.22 186.677 231.075 187.437 231.075V232.47C187.377 232.46 187.317 232.455 187.257 232.455C187.207 232.455 187.157 232.455 187.107 232.455C186.337 232.455 185.727 232.685 185.277 233.145C184.827 233.605 184.602 234.27 184.602 235.14V239.1H183.162ZM192.543 239.19C191.743 239.19 191.033 239.015 190.413 238.665C189.793 238.315 189.303 237.835 188.943 237.225C188.583 236.605 188.403 235.905 188.403 235.125C188.403 234.335 188.583 233.635 188.943 233.025C189.303 232.415 189.793 231.94 190.413 231.6C191.033 231.25 191.743 231.075 192.543 231.075C193.333 231.075 194.038 231.25 194.658 231.6C195.288 231.94 195.778 232.415 196.128 233.025C196.488 233.625 196.668 234.325 196.668 235.125C196.668 235.915 196.488 236.615 196.128 237.225C195.778 237.835 195.288 238.315 194.658 238.665C194.038 239.015 193.333 239.19 192.543 239.19ZM192.543 237.93C193.053 237.93 193.508 237.815 193.908 237.585C194.318 237.355 194.638 237.03 194.868 236.61C195.098 236.18 195.213 235.685 195.213 235.125C195.213 234.555 195.098 234.065 194.868 233.655C194.638 233.235 194.318 232.91 193.908 232.68C193.508 232.45 193.053 232.335 192.543 232.335C192.033 232.335 191.578 232.45 191.178 232.68C190.778 232.91 190.458 233.235 190.218 233.655C189.978 234.065 189.858 234.555 189.858 235.125C189.858 235.685 189.978 236.18 190.218 236.61C190.458 237.03 190.778 237.355 191.178 237.585C191.578 237.815 192.033 237.93 192.543 237.93ZM200.525 239.1L197.045 231.15H198.545L201.635 238.35H200.915L204.065 231.15H205.475L201.995 239.1H200.525ZM210.139 239.19C209.289 239.19 208.539 239.015 207.889 238.665C207.249 238.315 206.749 237.835 206.389 237.225C206.039 236.615 205.864 235.915 205.864 235.125C205.864 234.335 206.034 233.635 206.374 233.025C206.724 232.415 207.199 231.94 207.799 231.6C208.409 231.25 209.094 231.075 209.854 231.075C210.624 231.075 211.304 231.245 211.894 231.585C212.484 231.925 212.944 232.405 213.274 233.025C213.614 233.635 213.784 234.35 213.784 235.17C213.784 235.23 213.779 235.3 213.769 235.38C213.769 235.46 213.764 235.535 213.754 235.605H206.989V234.57H213.004L212.419 234.93C212.429 234.42 212.324 233.965 212.104 233.565C211.884 233.165 211.579 232.855 211.189 232.635C210.809 232.405 210.364 232.29 209.854 232.29C209.354 232.29 208.909 232.405 208.519 232.635C208.129 232.855 207.824 233.17 207.604 233.58C207.384 233.98 207.274 234.44 207.274 234.96V235.2C207.274 235.73 207.394 236.205 207.634 236.625C207.884 237.035 208.229 237.355 208.669 237.585C209.109 237.815 209.614 237.93 210.184 237.93C210.654 237.93 211.079 237.85 211.459 237.69C211.849 237.53 212.189 237.29 212.479 236.97L213.274 237.9C212.914 238.32 212.464 238.64 211.924 238.86C211.394 239.08 210.799 239.19 210.139 239.19ZM219.069 239.19C218.299 239.19 217.609 239.02 216.999 238.68C216.399 238.34 215.924 237.865 215.574 237.255C215.224 236.645 215.049 235.935 215.049 235.125C215.049 234.315 215.224 233.61 215.574 233.01C215.924 232.4 216.399 231.925 216.999 231.585C217.609 231.245 218.299 231.075 219.069 231.075C219.739 231.075 220.344 231.225 220.884 231.525C221.424 231.825 221.854 232.275 222.174 232.875C222.504 233.475 222.669 234.225 222.669 235.125C222.669 236.025 222.509 236.775 222.189 237.375C221.879 237.975 221.454 238.43 220.914 238.74C220.374 239.04 219.759 239.19 219.069 239.19ZM219.189 237.93C219.689 237.93 220.139 237.815 220.539 237.585C220.949 237.355 221.269 237.03 221.499 236.61C221.739 236.18 221.859 235.685 221.859 235.125C221.859 234.555 221.739 234.065 221.499 233.655C221.269 233.235 220.949 232.91 220.539 232.68C220.139 232.45 219.689 232.335 219.189 232.335C218.679 232.335 218.224 232.45 217.824 232.68C217.424 232.91 217.104 233.235 216.864 233.655C216.624 234.065 216.504 234.555 216.504 235.125C216.504 235.685 216.624 236.18 216.864 236.61C217.104 237.03 217.424 237.355 217.824 237.585C218.224 237.815 218.679 237.93 219.189 237.93ZM221.904 239.1V236.955L221.994 235.11L221.844 233.265V227.97H223.284V239.1H221.904ZM234.252 239.19C233.572 239.19 232.957 239.04 232.407 238.74C231.867 238.43 231.437 237.975 231.117 237.375C230.807 236.775 230.652 236.025 230.652 235.125C230.652 234.225 230.812 233.475 231.132 232.875C231.462 232.275 231.897 231.825 232.437 231.525C232.987 231.225 233.592 231.075 234.252 231.075C235.032 231.075 235.722 231.245 236.322 231.585C236.922 231.925 237.397 232.4 237.747 233.01C238.097 233.61 238.272 234.315 238.272 235.125C238.272 235.935 238.097 236.645 237.747 237.255C237.397 237.865 236.922 238.34 236.322 238.68C235.722 239.02 235.032 239.19 234.252 239.19ZM230.037 239.1V227.97H231.477V233.265L231.327 235.11L231.417 236.955V239.1H230.037ZM234.132 237.93C234.642 237.93 235.097 237.815 235.497 237.585C235.907 237.355 236.227 237.03 236.457 236.61C236.697 236.18 236.817 235.685 236.817 235.125C236.817 234.555 236.697 234.065 236.457 233.655C236.227 233.235 235.907 232.91 235.497 232.68C235.097 232.45 234.642 232.335 234.132 232.335C233.632 232.335 233.177 232.45 232.767 232.68C232.367 232.91 232.047 233.235 231.807 233.655C231.577 234.065 231.462 234.555 231.462 235.125C231.462 235.685 231.577 236.18 231.807 236.61C232.047 237.03 232.367 237.355 232.767 237.585C233.177 237.815 233.632 237.93 234.132 237.93ZM240.387 242.1C240.007 242.1 239.637 242.035 239.277 241.905C238.917 241.785 238.607 241.605 238.347 241.365L238.962 240.285C239.162 240.475 239.382 240.62 239.622 240.72C239.862 240.82 240.117 240.87 240.387 240.87C240.737 240.87 241.027 240.78 241.257 240.6C241.487 240.42 241.702 240.1 241.902 239.64L242.397 238.545L242.547 238.365L245.667 231.15H247.077L243.222 239.895C242.992 240.455 242.732 240.895 242.442 241.215C242.162 241.535 241.852 241.76 241.512 241.89C241.172 242.03 240.797 242.1 240.387 242.1ZM242.277 239.355L238.647 231.15H240.147L243.237 238.23L242.277 239.355ZM255.914 239.19C255.104 239.19 254.379 239.015 253.739 238.665C253.109 238.315 252.614 237.835 252.254 237.225C251.894 236.615 251.714 235.915 251.714 235.125C251.714 234.335 251.894 233.635 252.254 233.025C252.614 232.415 253.109 231.94 253.739 231.6C254.379 231.25 255.104 231.075 255.914 231.075C256.634 231.075 257.274 231.22 257.834 231.51C258.404 231.79 258.844 232.21 259.154 232.77L258.059 233.475C257.799 233.085 257.479 232.8 257.099 232.62C256.729 232.43 256.329 232.335 255.899 232.335C255.379 232.335 254.914 232.45 254.504 232.68C254.094 232.91 253.769 233.235 253.529 233.655C253.289 234.065 253.169 234.555 253.169 235.125C253.169 235.695 253.289 236.19 253.529 236.61C253.769 237.03 254.094 237.355 254.504 237.585C254.914 237.815 255.379 237.93 255.899 237.93C256.329 237.93 256.729 237.84 257.099 237.66C257.479 237.47 257.799 237.18 258.059 236.79L259.154 237.48C258.844 238.03 258.404 238.455 257.834 238.755C257.274 239.045 256.634 239.19 255.914 239.19ZM260.916 239.1V227.97H262.356V239.1H260.916ZM265.105 239.1V231.15H266.545V239.1H265.105ZM265.825 229.62C265.545 229.62 265.31 229.53 265.12 229.35C264.94 229.17 264.85 228.95 264.85 228.69C264.85 228.42 264.94 228.195 265.12 228.015C265.31 227.835 265.545 227.745 265.825 227.745C266.105 227.745 266.335 227.835 266.515 228.015C266.705 228.185 266.8 228.4 266.8 228.66C266.8 228.93 266.71 229.16 266.53 229.35C266.35 229.53 266.115 229.62 265.825 229.62ZM272.835 239.19C271.985 239.19 271.235 239.015 270.585 238.665C269.945 238.315 269.445 237.835 269.085 237.225C268.735 236.615 268.56 235.915 268.56 235.125C268.56 234.335 268.73 233.635 269.07 233.025C269.42 232.415 269.895 231.94 270.495 231.6C271.105 231.25 271.79 231.075 272.55 231.075C273.32 231.075 274 231.245 274.59 231.585C275.18 231.925 275.64 232.405 275.97 233.025C276.31 233.635 276.48 234.35 276.48 235.17C276.48 235.23 276.475 235.3 276.465 235.38C276.465 235.46 276.46 235.535 276.45 235.605H269.685V234.57H275.7L275.115 234.93C275.125 234.42 275.02 233.965 274.8 233.565C274.58 233.165 274.275 232.855 273.885 232.635C273.505 232.405 273.06 232.29 272.55 232.29C272.05 232.29 271.605 232.405 271.215 232.635C270.825 232.855 270.52 233.17 270.3 233.58C270.08 233.98 269.97 234.44 269.97 234.96V235.2C269.97 235.73 270.09 236.205 270.33 236.625C270.58 237.035 270.925 237.355 271.365 237.585C271.805 237.815 272.31 237.93 272.88 237.93C273.35 237.93 273.775 237.85 274.155 237.69C274.545 237.53 274.885 237.29 275.175 236.97L275.97 237.9C275.61 238.32 275.16 238.64 274.62 238.86C274.09 239.08 273.495 239.19 272.835 239.19ZM282.724 231.075C283.374 231.075 283.944 231.2 284.434 231.45C284.934 231.7 285.324 232.08 285.604 232.59C285.884 233.1 286.024 233.745 286.024 234.525V239.1H284.584V234.69C284.584 233.92 284.394 233.34 284.014 232.95C283.644 232.56 283.119 232.365 282.439 232.365C281.929 232.365 281.484 232.465 281.104 232.665C280.724 232.865 280.429 233.16 280.219 233.55C280.019 233.94 279.919 234.425 279.919 235.005V239.1H278.479V231.15H279.859V233.295L279.634 232.725C279.894 232.205 280.294 231.8 280.834 231.51C281.374 231.22 282.004 231.075 282.724 231.075ZM291.419 239.19C290.619 239.19 289.999 238.975 289.559 238.545C289.119 238.115 288.899 237.5 288.899 236.7V229.41H290.339V236.64C290.339 237.07 290.444 237.4 290.654 237.63C290.874 237.86 291.184 237.975 291.584 237.975C292.034 237.975 292.409 237.85 292.709 237.6L293.159 238.635C292.939 238.825 292.674 238.965 292.364 239.055C292.064 239.145 291.749 239.19 291.419 239.19ZM287.549 232.335V231.15H292.619V232.335H287.549ZM295.392 239.19C295.112 239.19 294.872 239.095 294.672 238.905C294.472 238.705 294.372 238.455 294.372 238.155C294.372 237.855 294.472 237.61 294.672 237.42C294.872 237.23 295.112 237.135 295.392 237.135C295.662 237.135 295.892 237.23 296.082 237.42C296.282 237.61 296.382 237.855 296.382 238.155C296.382 238.455 296.282 238.705 296.082 238.905C295.892 239.095 295.662 239.19 295.392 239.19ZM302.683 239.1V228.6H307.108C308.228 228.6 309.213 228.82 310.063 229.26C310.923 229.7 311.588 230.315 312.058 231.105C312.538 231.895 312.778 232.81 312.778 233.85C312.778 234.89 312.538 235.805 312.058 236.595C311.588 237.385 310.923 238 310.063 238.44C309.213 238.88 308.228 239.1 307.108 239.1H302.683ZM304.183 237.795H307.018C307.888 237.795 308.638 237.63 309.268 237.3C309.908 236.97 310.403 236.51 310.753 235.92C311.103 235.32 311.278 234.63 311.278 233.85C311.278 233.06 311.103 232.37 310.753 231.78C310.403 231.19 309.908 230.73 309.268 230.4C308.638 230.07 307.888 229.905 307.018 229.905H304.183V237.795ZM318.406 239.19C317.556 239.19 316.806 239.015 316.156 238.665C315.516 238.315 315.016 237.835 314.656 237.225C314.306 236.615 314.131 235.915 314.131 235.125C314.131 234.335 314.301 233.635 314.641 233.025C314.991 232.415 315.466 231.94 316.066 231.6C316.676 231.25 317.361 231.075 318.121 231.075C318.891 231.075 319.571 231.245 320.161 231.585C320.751 231.925 321.211 232.405 321.541 233.025C321.881 233.635 322.051 234.35 322.051 235.17C322.051 235.23 322.046 235.3 322.036 235.38C322.036 235.46 322.031 235.535 322.021 235.605H315.256V234.57H321.271L320.686 234.93C320.696 234.42 320.591 233.965 320.371 233.565C320.151 233.165 319.846 232.855 319.456 232.635C319.076 232.405 318.631 232.29 318.121 232.29C317.621 232.29 317.176 232.405 316.786 232.635C316.396 232.855 316.091 233.17 315.871 233.58C315.651 233.98 315.541 234.44 315.541 234.96V235.2C315.541 235.73 315.661 236.205 315.901 236.625C316.151 237.035 316.496 237.355 316.936 237.585C317.376 237.815 317.881 237.93 318.451 237.93C318.921 237.93 319.346 237.85 319.726 237.69C320.116 237.53 320.456 237.29 320.746 236.97L321.541 237.9C321.181 238.32 320.731 238.64 320.191 238.86C319.661 239.08 319.066 239.19 318.406 239.19ZM326.331 239.19C325.671 239.19 325.041 239.1 324.441 238.92C323.851 238.74 323.386 238.52 323.046 238.26L323.646 237.12C323.986 237.35 324.406 237.545 324.906 237.705C325.406 237.865 325.916 237.945 326.436 237.945C327.106 237.945 327.586 237.85 327.876 237.66C328.176 237.47 328.326 237.205 328.326 236.865C328.326 236.615 328.236 236.42 328.056 236.28C327.876 236.14 327.636 236.035 327.336 235.965C327.046 235.895 326.721 235.835 326.361 235.785C326.001 235.725 325.641 235.655 325.281 235.575C324.921 235.485 324.591 235.365 324.291 235.215C323.991 235.055 323.751 234.84 323.571 234.57C323.391 234.29 323.301 233.92 323.301 233.46C323.301 232.98 323.436 232.56 323.706 232.2C323.976 231.84 324.356 231.565 324.846 231.375C325.346 231.175 325.936 231.075 326.616 231.075C327.136 231.075 327.661 231.14 328.191 231.27C328.731 231.39 329.171 231.565 329.511 231.795L328.896 232.935C328.536 232.695 328.161 232.53 327.771 232.44C327.381 232.35 326.991 232.305 326.601 232.305C325.971 232.305 325.501 232.41 325.191 232.62C324.881 232.82 324.726 233.08 324.726 233.4C324.726 233.67 324.816 233.88 324.996 234.03C325.186 234.17 325.426 234.28 325.716 234.36C326.016 234.44 326.346 234.51 326.706 234.57C327.066 234.62 327.426 234.69 327.786 234.78C328.146 234.86 328.471 234.975 328.761 235.125C329.061 235.275 329.301 235.485 329.481 235.755C329.671 236.025 329.766 236.385 329.766 236.835C329.766 237.315 329.626 237.73 329.346 238.08C329.066 238.43 328.671 238.705 328.161 238.905C327.651 239.095 327.041 239.19 326.331 239.19ZM331.565 239.1V231.15H333.005V239.1H331.565ZM332.285 229.62C332.005 229.62 331.77 229.53 331.58 229.35C331.4 229.17 331.31 228.95 331.31 228.69C331.31 228.42 331.4 228.195 331.58 228.015C331.77 227.835 332.005 227.745 332.285 227.745C332.565 227.745 332.795 227.835 332.975 228.015C333.165 228.185 333.26 228.4 333.26 228.66C333.26 228.93 333.17 229.16 332.99 229.35C332.81 229.53 332.575 229.62 332.285 229.62ZM339.235 242.1C338.505 242.1 337.795 241.995 337.105 241.785C336.425 241.585 335.87 241.295 335.44 240.915L336.13 239.805C336.5 240.125 336.955 240.375 337.495 240.555C338.035 240.745 338.6 240.84 339.19 240.84C340.13 240.84 340.82 240.62 341.26 240.18C341.7 239.74 341.92 239.07 341.92 238.17V236.49L342.07 234.915L341.995 233.325V231.15H343.36V238.02C343.36 239.42 343.01 240.45 342.31 241.11C341.61 241.77 340.585 242.1 339.235 242.1ZM339.055 238.77C338.285 238.77 337.595 238.61 336.985 238.29C336.385 237.96 335.905 237.505 335.545 236.925C335.195 236.345 335.02 235.675 335.02 234.915C335.02 234.145 335.195 233.475 335.545 232.905C335.905 232.325 336.385 231.875 336.985 231.555C337.595 231.235 338.285 231.075 339.055 231.075C339.735 231.075 340.355 231.215 340.915 231.495C341.475 231.765 341.92 232.185 342.25 232.755C342.59 233.325 342.76 234.045 342.76 234.915C342.76 235.775 342.59 236.49 342.25 237.06C341.92 237.63 341.475 238.06 340.915 238.35C340.355 238.63 339.735 238.77 339.055 238.77ZM339.22 237.51C339.75 237.51 340.22 237.4 340.63 237.18C341.04 236.96 341.36 236.655 341.59 236.265C341.83 235.875 341.95 235.425 341.95 234.915C341.95 234.405 341.83 233.955 341.59 233.565C341.36 233.175 341.04 232.875 340.63 232.665C340.22 232.445 339.75 232.335 339.22 232.335C338.69 232.335 338.215 232.445 337.795 232.665C337.385 232.875 337.06 233.175 336.82 233.565C336.59 233.955 336.475 234.405 336.475 234.915C336.475 235.425 336.59 235.875 336.82 236.265C337.06 236.655 337.385 236.96 337.795 237.18C338.215 237.4 338.69 237.51 339.22 237.51ZM350.356 231.075C351.006 231.075 351.576 231.2 352.066 231.45C352.566 231.7 352.956 232.08 353.236 232.59C353.516 233.1 353.656 233.745 353.656 234.525V239.1H352.216V234.69C352.216 233.92 352.026 233.34 351.646 232.95C351.276 232.56 350.751 232.365 350.071 232.365C349.561 232.365 349.116 232.465 348.736 232.665C348.356 232.865 348.061 233.16 347.851 233.55C347.651 233.94 347.551 234.425 347.551 235.005V239.1H346.111V231.15H347.491V233.295L347.266 232.725C347.526 232.205 347.926 231.8 348.466 231.51C349.006 231.22 349.636 231.075 350.356 231.075ZM360.559 239.1V228.6H364.984C366.104 228.6 367.089 228.82 367.939 229.26C368.799 229.7 369.464 230.315 369.934 231.105C370.414 231.895 370.654 232.81 370.654 233.85C370.654 234.89 370.414 235.805 369.934 236.595C369.464 237.385 368.799 238 367.939 238.44C367.089 238.88 366.104 239.1 364.984 239.1H360.559ZM362.059 237.795H364.894C365.764 237.795 366.514 237.63 367.144 237.3C367.784 236.97 368.279 236.51 368.629 235.92C368.979 235.32 369.154 234.63 369.154 233.85C369.154 233.06 368.979 232.37 368.629 231.78C368.279 231.19 367.784 230.73 367.144 230.4C366.514 230.07 365.764 229.905 364.894 229.905H362.059V237.795ZM376.282 239.19C375.432 239.19 374.682 239.015 374.032 238.665C373.392 238.315 372.892 237.835 372.532 237.225C372.182 236.615 372.007 235.915 372.007 235.125C372.007 234.335 372.177 233.635 372.517 233.025C372.867 232.415 373.342 231.94 373.942 231.6C374.552 231.25 375.237 231.075 375.997 231.075C376.767 231.075 377.447 231.245 378.037 231.585C378.627 231.925 379.087 232.405 379.417 233.025C379.757 233.635 379.927 234.35 379.927 235.17C379.927 235.23 379.922 235.3 379.912 235.38C379.912 235.46 379.907 235.535 379.897 235.605H373.132V234.57H379.147L378.562 234.93C378.572 234.42 378.467 233.965 378.247 233.565C378.027 233.165 377.722 232.855 377.332 232.635C376.952 232.405 376.507 232.29 375.997 232.29C375.497 232.29 375.052 232.405 374.662 232.635C374.272 232.855 373.967 233.17 373.747 233.58C373.527 233.98 373.417 234.44 373.417 234.96V235.2C373.417 235.73 373.537 236.205 373.777 236.625C374.027 237.035 374.372 237.355 374.812 237.585C375.252 237.815 375.757 237.93 376.327 237.93C376.797 237.93 377.222 237.85 377.602 237.69C377.992 237.53 378.332 237.29 378.622 236.97L379.417 237.9C379.057 238.32 378.607 238.64 378.067 238.86C377.537 239.08 376.942 239.19 376.282 239.19ZM381.927 239.1V227.97H383.367V239.1H381.927ZM386.116 239.1V231.15H387.556V239.1H386.116ZM386.836 229.62C386.556 229.62 386.321 229.53 386.131 229.35C385.951 229.17 385.861 228.95 385.861 228.69C385.861 228.42 385.951 228.195 386.131 228.015C386.321 227.835 386.556 227.745 386.836 227.745C387.116 227.745 387.346 227.835 387.526 228.015C387.716 228.185 387.811 228.4 387.811 228.66C387.811 228.93 387.721 229.16 387.541 229.35C387.361 229.53 387.126 229.62 386.836 229.62ZM392.39 239.1L388.91 231.15H390.41L393.5 238.35H392.78L395.93 231.15H397.34L393.86 239.1H392.39ZM402.005 239.19C401.155 239.19 400.405 239.015 399.755 238.665C399.115 238.315 398.615 237.835 398.255 237.225C397.905 236.615 397.73 235.915 397.73 235.125C397.73 234.335 397.9 233.635 398.24 233.025C398.59 232.415 399.065 231.94 399.665 231.6C400.275 231.25 400.96 231.075 401.72 231.075C402.49 231.075 403.17 231.245 403.76 231.585C404.35 231.925 404.81 232.405 405.14 233.025C405.48 233.635 405.65 234.35 405.65 235.17C405.65 235.23 405.645 235.3 405.635 235.38C405.635 235.46 405.63 235.535 405.62 235.605H398.855V234.57H404.87L404.285 234.93C404.295 234.42 404.19 233.965 403.97 233.565C403.75 233.165 403.445 232.855 403.055 232.635C402.675 232.405 402.23 232.29 401.72 232.29C401.22 232.29 400.775 232.405 400.385 232.635C399.995 232.855 399.69 233.17 399.47 233.58C399.25 233.98 399.14 234.44 399.14 234.96V235.2C399.14 235.73 399.26 236.205 399.5 236.625C399.75 237.035 400.095 237.355 400.535 237.585C400.975 237.815 401.48 237.93 402.05 237.93C402.52 237.93 402.945 237.85 403.325 237.69C403.715 237.53 404.055 237.29 404.345 236.97L405.14 237.9C404.78 238.32 404.33 238.64 403.79 238.86C403.26 239.08 402.665 239.19 402.005 239.19ZM407.649 239.1V231.15H409.029V233.31L408.894 232.77C409.114 232.22 409.484 231.8 410.004 231.51C410.524 231.22 411.164 231.075 411.924 231.075V232.47C411.864 232.46 411.804 232.455 411.744 232.455C411.694 232.455 411.644 232.455 411.594 232.455C410.824 232.455 410.214 232.685 409.764 233.145C409.314 233.605 409.089 234.27 409.089 235.14V239.1H407.649ZM414.366 242.1C413.986 242.1 413.616 242.035 413.256 241.905C412.896 241.785 412.586 241.605 412.326 241.365L412.941 240.285C413.141 240.475 413.361 240.62 413.601 240.72C413.841 240.82 414.096 240.87 414.366 240.87C414.716 240.87 415.006 240.78 415.236 240.6C415.466 240.42 415.681 240.1 415.881 239.64L416.376 238.545L416.526 238.365L419.646 231.15H421.056L417.201 239.895C416.971 240.455 416.711 240.895 416.421 241.215C416.141 241.535 415.831 241.76 415.491 241.89C415.151 242.03 414.776 242.1 414.366 242.1ZM416.256 239.355L412.626 231.15H414.126L417.216 238.23L416.256 239.355ZM84.7192 257.19C84.0592 257.19 83.4292 257.1 82.8292 256.92C82.2392 256.74 81.7742 256.52 81.4342 256.26L82.0342 255.12C82.3742 255.35 82.7942 255.545 83.2942 255.705C83.7942 255.865 84.3042 255.945 84.8242 255.945C85.4942 255.945 85.9742 255.85 86.2642 255.66C86.5642 255.47 86.7142 255.205 86.7142 254.865C86.7142 254.615 86.6242 254.42 86.4442 254.28C86.2642 254.14 86.0242 254.035 85.7242 253.965C85.4342 253.895 85.1092 253.835 84.7492 253.785C84.3892 253.725 84.0292 253.655 83.6692 253.575C83.3092 253.485 82.9792 253.365 82.6792 253.215C82.3792 253.055 82.1392 252.84 81.9592 252.57C81.7792 252.29 81.6892 251.92 81.6892 251.46C81.6892 250.98 81.8242 250.56 82.0942 250.2C82.3642 249.84 82.7442 249.565 83.2342 249.375C83.7342 249.175 84.3242 249.075 85.0042 249.075C85.5242 249.075 86.0492 249.14 86.5792 249.27C87.1192 249.39 87.5592 249.565 87.8992 249.795L87.2842 250.935C86.9242 250.695 86.5492 250.53 86.1592 250.44C85.7692 250.35 85.3792 250.305 84.9892 250.305C84.3592 250.305 83.8892 250.41 83.5792 250.62C83.2692 250.82 83.1142 251.08 83.1142 251.4C83.1142 251.67 83.2042 251.88 83.3842 252.03C83.5742 252.17 83.8142 252.28 84.1042 252.36C84.4042 252.44 84.7342 252.51 85.0942 252.57C85.4542 252.62 85.8142 252.69 86.1742 252.78C86.5342 252.86 86.8592 252.975 87.1492 253.125C87.4492 253.275 87.6892 253.485 87.8692 253.755C88.0592 254.025 88.1542 254.385 88.1542 254.835C88.1542 255.315 88.0142 255.73 87.7342 256.08C87.4542 256.43 87.0592 256.705 86.5492 256.905C86.0392 257.095 85.4292 257.19 84.7192 257.19ZM93.4189 257.19C92.6089 257.19 91.8839 257.015 91.2439 256.665C90.6139 256.315 90.1189 255.835 89.7589 255.225C89.3989 254.615 89.2189 253.915 89.2189 253.125C89.2189 252.335 89.3989 251.635 89.7589 251.025C90.1189 250.415 90.6139 249.94 91.2439 249.6C91.8839 249.25 92.6089 249.075 93.4189 249.075C94.1389 249.075 94.7789 249.22 95.3389 249.51C95.9089 249.79 96.3489 250.21 96.6589 250.77L95.5639 251.475C95.3039 251.085 94.9839 250.8 94.6039 250.62C94.2339 250.43 93.8339 250.335 93.4039 250.335C92.8839 250.335 92.4189 250.45 92.0089 250.68C91.5989 250.91 91.2739 251.235 91.0339 251.655C90.7939 252.065 90.6739 252.555 90.6739 253.125C90.6739 253.695 90.7939 254.19 91.0339 254.61C91.2739 255.03 91.5989 255.355 92.0089 255.585C92.4189 255.815 92.8839 255.93 93.4039 255.93C93.8339 255.93 94.2339 255.84 94.6039 255.66C94.9839 255.47 95.3039 255.18 95.5639 254.79L96.6589 255.48C96.3489 256.03 95.9089 256.455 95.3389 256.755C94.7789 257.045 94.1389 257.19 93.4189 257.19ZM102.666 249.075C103.316 249.075 103.886 249.2 104.376 249.45C104.876 249.7 105.266 250.08 105.546 250.59C105.826 251.1 105.966 251.745 105.966 252.525V257.1H104.526V252.69C104.526 251.92 104.336 251.34 103.956 250.95C103.586 250.56 103.061 250.365 102.381 250.365C101.871 250.365 101.426 250.465 101.046 250.665C100.666 250.865 100.371 251.16 100.161 251.55C99.9607 251.94 99.8607 252.425 99.8607 253.005V257.1H98.4207V245.97H99.8607V251.295L99.5757 250.725C99.8357 250.205 100.236 249.8 100.776 249.51C101.316 249.22 101.946 249.075 102.666 249.075ZM112.171 257.19C111.321 257.19 110.571 257.015 109.921 256.665C109.281 256.315 108.781 255.835 108.421 255.225C108.071 254.615 107.896 253.915 107.896 253.125C107.896 252.335 108.066 251.635 108.406 251.025C108.756 250.415 109.231 249.94 109.831 249.6C110.441 249.25 111.126 249.075 111.886 249.075C112.656 249.075 113.336 249.245 113.926 249.585C114.516 249.925 114.976 250.405 115.306 251.025C115.646 251.635 115.816 252.35 115.816 253.17C115.816 253.23 115.811 253.3 115.801 253.38C115.801 253.46 115.796 253.535 115.786 253.605H109.021V252.57H115.036L114.451 252.93C114.461 252.42 114.356 251.965 114.136 251.565C113.916 251.165 113.611 250.855 113.221 250.635C112.841 250.405 112.396 250.29 111.886 250.29C111.386 250.29 110.941 250.405 110.551 250.635C110.161 250.855 109.856 251.17 109.636 251.58C109.416 251.98 109.306 252.44 109.306 252.96V253.2C109.306 253.73 109.426 254.205 109.666 254.625C109.916 255.035 110.261 255.355 110.701 255.585C111.141 255.815 111.646 255.93 112.216 255.93C112.686 255.93 113.111 255.85 113.491 255.69C113.881 255.53 114.221 255.29 114.511 254.97L115.306 255.9C114.946 256.32 114.496 256.64 113.956 256.86C113.426 257.08 112.831 257.19 112.171 257.19ZM121.1 257.19C120.33 257.19 119.64 257.02 119.03 256.68C118.43 256.34 117.955 255.865 117.605 255.255C117.255 254.645 117.08 253.935 117.08 253.125C117.08 252.315 117.255 251.61 117.605 251.01C117.955 250.4 118.43 249.925 119.03 249.585C119.64 249.245 120.33 249.075 121.1 249.075C121.77 249.075 122.375 249.225 122.915 249.525C123.455 249.825 123.885 250.275 124.205 250.875C124.535 251.475 124.7 252.225 124.7 253.125C124.7 254.025 124.54 254.775 124.22 255.375C123.91 255.975 123.485 256.43 122.945 256.74C122.405 257.04 121.79 257.19 121.1 257.19ZM121.22 255.93C121.72 255.93 122.17 255.815 122.57 255.585C122.98 255.355 123.3 255.03 123.53 254.61C123.77 254.18 123.89 253.685 123.89 253.125C123.89 252.555 123.77 252.065 123.53 251.655C123.3 251.235 122.98 250.91 122.57 250.68C122.17 250.45 121.72 250.335 121.22 250.335C120.71 250.335 120.255 250.45 119.855 250.68C119.455 250.91 119.135 251.235 118.895 251.655C118.655 252.065 118.535 252.555 118.535 253.125C118.535 253.685 118.655 254.18 118.895 254.61C119.135 255.03 119.455 255.355 119.855 255.585C120.255 255.815 120.71 255.93 121.22 255.93ZM123.935 257.1V254.955L124.025 253.11L123.875 251.265V245.97H125.315V257.1H123.935ZM131.385 257.19C130.705 257.19 130.105 257.065 129.585 256.815C129.075 256.565 128.675 256.185 128.385 255.675C128.105 255.155 127.965 254.505 127.965 253.725V249.15H129.405V253.56C129.405 254.34 129.59 254.925 129.96 255.315C130.34 255.705 130.87 255.9 131.55 255.9C132.05 255.9 132.485 255.8 132.855 255.6C133.225 255.39 133.51 255.09 133.71 254.7C133.91 254.3 134.01 253.82 134.01 253.26V249.15H135.45V257.1H134.085V254.955L134.31 255.525C134.05 256.055 133.66 256.465 133.14 256.755C132.62 257.045 132.035 257.19 131.385 257.19ZM138.191 257.1V245.97H139.631V257.1H138.191ZM145.921 257.19C145.071 257.19 144.321 257.015 143.671 256.665C143.031 256.315 142.531 255.835 142.171 255.225C141.821 254.615 141.646 253.915 141.646 253.125C141.646 252.335 141.816 251.635 142.156 251.025C142.506 250.415 142.981 249.94 143.581 249.6C144.191 249.25 144.876 249.075 145.636 249.075C146.406 249.075 147.086 249.245 147.676 249.585C148.266 249.925 148.726 250.405 149.056 251.025C149.396 251.635 149.566 252.35 149.566 253.17C149.566 253.23 149.561 253.3 149.551 253.38C149.551 253.46 149.546 253.535 149.536 253.605H142.771V252.57H148.786L148.201 252.93C148.211 252.42 148.106 251.965 147.886 251.565C147.666 251.165 147.361 250.855 146.971 250.635C146.591 250.405 146.146 250.29 145.636 250.29C145.136 250.29 144.691 250.405 144.301 250.635C143.911 250.855 143.606 251.17 143.386 251.58C143.166 251.98 143.056 252.44 143.056 252.96V253.2C143.056 253.73 143.176 254.205 143.416 254.625C143.666 255.035 144.011 255.355 144.451 255.585C144.891 255.815 145.396 255.93 145.966 255.93C146.436 255.93 146.861 255.85 147.241 255.69C147.631 255.53 147.971 255.29 148.261 254.97L149.056 255.9C148.696 256.32 148.246 256.64 147.706 256.86C147.176 257.08 146.581 257.19 145.921 257.19ZM154.85 257.19C154.08 257.19 153.39 257.02 152.78 256.68C152.18 256.34 151.705 255.865 151.355 255.255C151.005 254.645 150.83 253.935 150.83 253.125C150.83 252.315 151.005 251.61 151.355 251.01C151.705 250.4 152.18 249.925 152.78 249.585C153.39 249.245 154.08 249.075 154.85 249.075C155.52 249.075 156.125 249.225 156.665 249.525C157.205 249.825 157.635 250.275 157.955 250.875C158.285 251.475 158.45 252.225 158.45 253.125C158.45 254.025 158.29 254.775 157.97 255.375C157.66 255.975 157.235 256.43 156.695 256.74C156.155 257.04 155.54 257.19 154.85 257.19ZM154.97 255.93C155.47 255.93 155.92 255.815 156.32 255.585C156.73 255.355 157.05 255.03 157.28 254.61C157.52 254.18 157.64 253.685 157.64 253.125C157.64 252.555 157.52 252.065 157.28 251.655C157.05 251.235 156.73 250.91 156.32 250.68C155.92 250.45 155.47 250.335 154.97 250.335C154.46 250.335 154.005 250.45 153.605 250.68C153.205 250.91 152.885 251.235 152.645 251.655C152.405 252.065 152.285 252.555 152.285 253.125C152.285 253.685 152.405 254.18 152.645 254.61C152.885 255.03 153.205 255.355 153.605 255.585C154.005 255.815 154.46 255.93 154.97 255.93ZM157.685 257.1V254.955L157.775 253.11L157.625 251.265V245.97H159.065V257.1H157.685ZM166.028 257.1V248.445C166.028 247.665 166.253 247.045 166.703 246.585C167.163 246.115 167.813 245.88 168.653 245.88C168.963 245.88 169.258 245.92 169.538 246C169.828 246.07 170.073 246.185 170.273 246.345L169.838 247.44C169.688 247.32 169.518 247.23 169.328 247.17C169.138 247.1 168.938 247.065 168.728 247.065C168.308 247.065 167.988 247.185 167.768 247.425C167.548 247.655 167.438 248 167.438 248.46V249.525L167.468 250.185V257.1H166.028ZM164.678 250.335V249.15H169.748V250.335H164.678ZM174.394 257.19C173.594 257.19 172.884 257.015 172.264 256.665C171.644 256.315 171.154 255.835 170.794 255.225C170.434 254.605 170.254 253.905 170.254 253.125C170.254 252.335 170.434 251.635 170.794 251.025C171.154 250.415 171.644 249.94 172.264 249.6C172.884 249.25 173.594 249.075 174.394 249.075C175.184 249.075 175.889 249.25 176.509 249.6C177.139 249.94 177.629 250.415 177.979 251.025C178.339 251.625 178.519 252.325 178.519 253.125C178.519 253.915 178.339 254.615 177.979 255.225C177.629 255.835 177.139 256.315 176.509 256.665C175.889 257.015 175.184 257.19 174.394 257.19ZM174.394 255.93C174.904 255.93 175.359 255.815 175.759 255.585C176.169 255.355 176.489 255.03 176.719 254.61C176.949 254.18 177.064 253.685 177.064 253.125C177.064 252.555 176.949 252.065 176.719 251.655C176.489 251.235 176.169 250.91 175.759 250.68C175.359 250.45 174.904 250.335 174.394 250.335C173.884 250.335 173.429 250.45 173.029 250.68C172.629 250.91 172.309 251.235 172.069 251.655C171.829 252.065 171.709 252.555 171.709 253.125C171.709 253.685 171.829 254.18 172.069 254.61C172.309 255.03 172.629 255.355 173.029 255.585C173.429 255.815 173.884 255.93 174.394 255.93ZM180.511 257.1V249.15H181.891V251.31L181.756 250.77C181.976 250.22 182.346 249.8 182.866 249.51C183.386 249.22 184.026 249.075 184.786 249.075V250.47C184.726 250.46 184.666 250.455 184.606 250.455C184.556 250.455 184.506 250.455 184.456 250.455C183.686 250.455 183.076 250.685 182.626 251.145C182.176 251.605 181.951 252.27 181.951 253.14V257.1H180.511ZM193.421 257.19C192.621 257.19 192.001 256.975 191.561 256.545C191.121 256.115 190.901 255.5 190.901 254.7V247.41H192.341V254.64C192.341 255.07 192.446 255.4 192.656 255.63C192.876 255.86 193.186 255.975 193.586 255.975C194.036 255.975 194.411 255.85 194.711 255.6L195.161 256.635C194.941 256.825 194.676 256.965 194.366 257.055C194.066 257.145 193.751 257.19 193.421 257.19ZM189.551 250.335V249.15H194.621V250.335H189.551ZM200.043 257.19C199.243 257.19 198.533 257.015 197.913 256.665C197.293 256.315 196.803 255.835 196.443 255.225C196.083 254.605 195.903 253.905 195.903 253.125C195.903 252.335 196.083 251.635 196.443 251.025C196.803 250.415 197.293 249.94 197.913 249.6C198.533 249.25 199.243 249.075 200.043 249.075C200.833 249.075 201.538 249.25 202.158 249.6C202.788 249.94 203.278 250.415 203.628 251.025C203.988 251.625 204.168 252.325 204.168 253.125C204.168 253.915 203.988 254.615 203.628 255.225C203.278 255.835 202.788 256.315 202.158 256.665C201.538 257.015 200.833 257.19 200.043 257.19ZM200.043 255.93C200.553 255.93 201.008 255.815 201.408 255.585C201.818 255.355 202.138 255.03 202.368 254.61C202.598 254.18 202.713 253.685 202.713 253.125C202.713 252.555 202.598 252.065 202.368 251.655C202.138 251.235 201.818 250.91 201.408 250.68C201.008 250.45 200.553 250.335 200.043 250.335C199.533 250.335 199.078 250.45 198.678 250.68C198.278 250.91 197.958 251.235 197.718 251.655C197.478 252.065 197.358 252.555 197.358 253.125C197.358 253.685 197.478 254.18 197.718 254.61C197.958 255.03 198.278 255.355 198.678 255.585C199.078 255.815 199.533 255.93 200.043 255.93ZM216.105 249.075C216.745 249.075 217.31 249.2 217.8 249.45C218.29 249.7 218.67 250.08 218.94 250.59C219.22 251.1 219.36 251.745 219.36 252.525V257.1H217.92V252.69C217.92 251.92 217.74 251.34 217.38 250.95C217.02 250.56 216.515 250.365 215.865 250.365C215.385 250.365 214.965 250.465 214.605 250.665C214.245 250.865 213.965 251.16 213.765 251.55C213.575 251.94 213.48 252.425 213.48 253.005V257.1H212.04V252.69C212.04 251.92 211.86 251.34 211.5 250.95C211.15 250.56 210.645 250.365 209.985 250.365C209.515 250.365 209.1 250.465 208.74 250.665C208.38 250.865 208.1 251.16 207.9 251.55C207.7 251.94 207.6 252.425 207.6 253.005V257.1H206.16V249.15H207.54V251.265L207.315 250.725C207.565 250.205 207.95 249.8 208.47 249.51C208.99 249.22 209.595 249.075 210.285 249.075C211.045 249.075 211.7 249.265 212.25 249.645C212.8 250.015 213.16 250.58 213.33 251.34L212.745 251.1C212.985 250.49 213.405 250 214.005 249.63C214.605 249.26 215.305 249.075 216.105 249.075ZM225.415 257.19C224.615 257.19 223.905 257.015 223.285 256.665C222.665 256.315 222.175 255.835 221.815 255.225C221.455 254.605 221.275 253.905 221.275 253.125C221.275 252.335 221.455 251.635 221.815 251.025C222.175 250.415 222.665 249.94 223.285 249.6C223.905 249.25 224.615 249.075 225.415 249.075C226.205 249.075 226.91 249.25 227.53 249.6C228.16 249.94 228.65 250.415 229 251.025C229.36 251.625 229.54 252.325 229.54 253.125C229.54 253.915 229.36 254.615 229 255.225C228.65 255.835 228.16 256.315 227.53 256.665C226.91 257.015 226.205 257.19 225.415 257.19ZM225.415 255.93C225.925 255.93 226.38 255.815 226.78 255.585C227.19 255.355 227.51 255.03 227.74 254.61C227.97 254.18 228.085 253.685 228.085 253.125C228.085 252.555 227.97 252.065 227.74 251.655C227.51 251.235 227.19 250.91 226.78 250.68C226.38 250.45 225.925 250.335 225.415 250.335C224.905 250.335 224.45 250.45 224.05 250.68C223.65 250.91 223.33 251.235 223.09 251.655C222.85 252.065 222.73 252.555 222.73 253.125C222.73 253.685 222.85 254.18 223.09 254.61C223.33 255.03 223.65 255.355 224.05 255.585C224.45 255.815 224.905 255.93 225.415 255.93ZM231.531 257.1V249.15H232.911V251.31L232.776 250.77C232.996 250.22 233.366 249.8 233.886 249.51C234.406 249.22 235.046 249.075 235.806 249.075V250.47C235.746 250.46 235.686 250.455 235.626 250.455C235.576 250.455 235.526 250.455 235.476 250.455C234.706 250.455 234.096 250.685 233.646 251.145C233.196 251.605 232.971 252.27 232.971 253.14V257.1H231.531ZM237.581 257.1V249.15H238.961V251.31L238.826 250.77C239.046 250.22 239.416 249.8 239.936 249.51C240.456 249.22 241.096 249.075 241.856 249.075V250.47C241.796 250.46 241.736 250.455 241.676 250.455C241.626 250.455 241.576 250.455 241.526 250.455C240.756 250.455 240.146 250.685 239.696 251.145C239.246 251.605 239.021 252.27 239.021 253.14V257.1H237.581ZM246.962 257.19C246.162 257.19 245.452 257.015 244.832 256.665C244.212 256.315 243.722 255.835 243.362 255.225C243.002 254.605 242.822 253.905 242.822 253.125C242.822 252.335 243.002 251.635 243.362 251.025C243.722 250.415 244.212 249.94 244.832 249.6C245.452 249.25 246.162 249.075 246.962 249.075C247.752 249.075 248.457 249.25 249.077 249.6C249.707 249.94 250.197 250.415 250.547 251.025C250.907 251.625 251.087 252.325 251.087 253.125C251.087 253.915 250.907 254.615 250.547 255.225C250.197 255.835 249.707 256.315 249.077 256.665C248.457 257.015 247.752 257.19 246.962 257.19ZM246.962 255.93C247.472 255.93 247.927 255.815 248.327 255.585C248.737 255.355 249.057 255.03 249.287 254.61C249.517 254.18 249.632 253.685 249.632 253.125C249.632 252.555 249.517 252.065 249.287 251.655C249.057 251.235 248.737 250.91 248.327 250.68C247.927 250.45 247.472 250.335 246.962 250.335C246.452 250.335 245.997 250.45 245.597 250.68C245.197 250.91 244.877 251.235 244.637 251.655C244.397 252.065 244.277 252.555 244.277 253.125C244.277 253.685 244.397 254.18 244.637 254.61C244.877 255.03 245.197 255.355 245.597 255.585C245.997 255.815 246.452 255.93 246.962 255.93ZM254.539 257.1L251.584 249.15H252.949L255.574 256.35H254.929L257.659 249.15H258.874L261.544 256.35H260.914L263.599 249.15H264.889L261.919 257.1H260.539L258.034 250.53H258.454L255.919 257.1H254.539ZM266.197 257.19C265.917 257.19 265.677 257.095 265.477 256.905C265.277 256.705 265.177 256.455 265.177 256.155C265.177 255.855 265.277 255.61 265.477 255.42C265.677 255.23 265.917 255.135 266.197 255.135C266.467 255.135 266.697 255.23 266.887 255.42C267.087 255.61 267.187 255.855 267.187 256.155C267.187 256.455 267.087 256.705 266.887 256.905C266.697 257.095 266.467 257.19 266.197 257.19Z" fill="black"/>
<defs>
<filter id="filter0_d_100_436" x="52.9" y="9.76548e-05" width="200.4" height="41.4" filterUnits="userSpaceOnUse" color-interpolation-filters="sRGB">
<feFlood flood-opacity="0" result="BackgroundImageFix"/>
<feColorMatrix in="SourceAlpha" type="matrix" values="0 0 0 0 0 0 0 0 0 0 0 0 0 0 0 0 0 0 127 0" result="hardAlpha"/>
<feMorphology radius="0.1" operator="dilate" in="SourceAlpha" result="effect1_dropShadow_100_436"/>
<feOffset dx="0.1" dy="0.1"/>
<feGaussianBlur stdDeviation="0.05"/>
<feComposite in2="hardAlpha" operator="out"/>
<feColorMatrix type="matrix" values="0 0 0 0 0 0 0 0 0 0 0 0 0 0 0 0 0 0 0.25 0"/>
<feBlend mode="normal" in2="BackgroundImageFix" result="effect1_dropShadow_100_436"/>
<feBlend mode="normal" in="SourceGraphic" in2="effect1_dropShadow_100_436" result="shape"/>
</filter>
</defs>
</svg>
