<svg width="144" height="33" viewBox="0 0 144 33" fill="none" xmlns="http://www.w3.org/2000/svg">
<path d="M9.08455 21.5V0.5H0.584549C0.417882 6.5 0.384549 19.5 1.58455 23.5C2.78455 27.5 7.75122 30.8333 10.0845 32H22.0845V23.5L11.5845 24L9.08455 21.5Z" fill="#F33E35" stroke="#F33E35"/>
<circle cx="37.084" cy="15.5" r="10.5" stroke="#F33E35" stroke-width="9"/>
<path d="M82.584 5C89.2707 5 95.1025 6.5438 99.1055 8.80957C103.244 11.1521 104.584 13.6913 104.584 15.5C104.584 17.3087 103.244 19.8479 99.1055 22.1904C95.1025 24.4562 89.2707 26 82.584 26C75.8973 26 70.0654 24.4562 66.0625 22.1904C61.9241 19.8479 60.584 17.3087 60.584 15.5C60.584 13.6913 61.9241 11.1521 66.0625 8.80957C70.0654 6.5438 75.8973 5 82.584 5Z" stroke="#F33E35" stroke-width="9"/>
<circle cx="128.084" cy="15.5" r="10.5" stroke="#F33E35" stroke-width="9"/>
</svg>
