<svg width="849" height="33" viewBox="0 0 849 33" fill="none" xmlns="http://www.w3.org/2000/svg">
<path d="M9.08455 21.5V0.5H0.584549C0.417882 6.5 0.384549 19.5 1.58455 23.5C2.78455 27.5 7.75122 30.8333 10.0845 32H22.0845V23.5L11.5845 24L9.08455 21.5Z" fill="#F33E35" stroke="#F33E35"/>
<circle cx="37.084" cy="15.5" r="10.5" stroke="#F33E35" stroke-width="9"/>
<path d="M82.584 5C89.2707 5 95.1025 6.5438 99.1055 8.80957C103.244 11.1521 104.584 13.6913 104.584 15.5C104.584 17.3087 103.244 19.8479 99.1055 22.1904C95.1025 24.4562 89.2707 26 82.584 26C75.8973 26 70.0654 24.4562 66.0625 22.1904C61.9241 19.8479 60.584 17.3087 60.584 15.5C60.584 13.6913 61.9241 11.1521 66.0625 8.80957C70.0654 6.5438 75.8973 5 82.584 5Z" stroke="#F33E35" stroke-width="9"/>
<circle cx="128.084" cy="15.5" r="10.5" stroke="#F33E35" stroke-width="9"/>
<path d="M475.432 22.25V11.3302H471.157V9.78036H481.471V11.3302H477.196V22.25H475.432ZM486.392 22.3569C485.383 22.3569 484.492 22.1491 483.72 21.7334C482.96 21.3177 482.366 20.7477 481.939 20.0233C481.523 19.2989 481.315 18.4675 481.315 17.5294C481.315 16.5912 481.517 15.7599 481.921 15.0354C482.336 14.311 482.9 13.7469 483.613 13.3431C484.337 12.9275 485.151 12.7196 486.054 12.7196C486.968 12.7196 487.776 12.9215 488.476 13.3253C489.177 13.7291 489.723 14.2991 490.115 15.0354C490.519 15.7599 490.721 16.609 490.721 17.5828C490.721 17.654 490.715 17.7372 490.703 17.8322C490.703 17.9272 490.697 18.0163 490.685 18.0994H482.651V16.8702H489.794L489.1 17.2978C489.112 16.6921 488.987 16.1518 488.726 15.6767C488.464 15.2017 488.102 14.8335 487.639 14.5723C487.188 14.2991 486.659 14.1626 486.054 14.1626C485.46 14.1626 484.931 14.2991 484.468 14.5723C484.005 14.8335 483.643 15.2076 483.381 15.6945C483.12 16.1696 482.99 16.7159 482.99 17.3334V17.6184C482.99 18.2478 483.132 18.8119 483.417 19.3107C483.714 19.7976 484.124 20.1777 484.646 20.4508C485.169 20.724 485.769 20.8605 486.445 20.8605C487.004 20.8605 487.508 20.7655 487.96 20.5755C488.423 20.3855 488.827 20.1005 489.171 19.7204L490.115 20.8249C489.688 21.3237 489.153 21.7037 488.512 21.965C487.882 22.2262 487.176 22.3569 486.392 22.3569ZM504.906 12.7196C505.666 12.7196 506.337 12.8681 506.919 13.165C507.501 13.4619 507.952 13.9132 508.273 14.5188C508.605 15.1245 508.772 15.8905 508.772 16.8168V22.25H507.061V17.0128C507.061 16.0983 506.848 15.4095 506.42 14.9464C505.993 14.4832 505.393 14.2516 504.621 14.2516C504.051 14.2516 503.552 14.3704 503.125 14.6079C502.697 14.8454 502.364 15.1957 502.127 15.6589C501.901 16.1221 501.789 16.698 501.789 17.3868V22.25H500.078V17.0128C500.078 16.0983 499.865 15.4095 499.437 14.9464C499.021 14.4832 498.422 14.2516 497.638 14.2516C497.08 14.2516 496.587 14.3704 496.159 14.6079C495.732 14.8454 495.399 15.1957 495.162 15.6589C494.924 16.1221 494.806 16.698 494.806 17.3868V22.25H493.095V12.8087H494.734V15.3204L494.467 14.6791C494.764 14.0616 495.221 13.5806 495.839 13.2362C496.456 12.8918 497.175 12.7196 497.994 12.7196C498.897 12.7196 499.675 12.9453 500.328 13.3966C500.981 13.836 501.408 14.507 501.61 15.4095L500.916 15.1245C501.201 14.4001 501.699 13.8182 502.412 13.3787C503.125 12.9393 503.956 12.7196 504.906 12.7196ZM516.924 22.3569C516.14 22.3569 515.422 22.1787 514.768 21.8225C514.127 21.4543 513.61 20.914 513.219 20.2014C512.839 19.4889 512.649 18.5982 512.649 17.5294C512.649 16.4605 512.833 15.5698 513.201 14.8573C513.581 14.1447 514.091 13.6103 514.733 13.254C515.386 12.8978 516.116 12.7196 516.924 12.7196C517.85 12.7196 518.67 12.9215 519.382 13.3253C520.095 13.7291 520.659 14.2932 521.074 15.0176C521.49 15.7302 521.698 16.5674 521.698 17.5294C521.698 18.4913 521.49 19.3345 521.074 20.0589C520.659 20.7833 520.095 21.3474 519.382 21.7512C518.67 22.155 517.85 22.3569 516.924 22.3569ZM511.918 25.7059V12.8087H513.557V15.3561L513.45 17.5472L513.628 19.7383V25.7059H511.918ZM516.781 20.8605C517.387 20.8605 517.927 20.724 518.402 20.4508C518.889 20.1777 519.269 19.7917 519.542 19.2929C519.827 18.7823 519.97 18.1944 519.97 17.5294C519.97 16.8524 519.827 16.2705 519.542 15.7836C519.269 15.2848 518.889 14.8989 518.402 14.6257C517.927 14.3526 517.387 14.216 516.781 14.216C516.188 14.216 515.647 14.3526 515.16 14.6257C514.685 14.8989 514.305 15.2848 514.02 15.7836C513.747 16.2705 513.61 16.8524 513.61 17.5294C513.61 18.1944 513.747 18.7823 514.02 19.2929C514.305 19.7917 514.685 20.1777 515.16 20.4508C515.647 20.724 516.188 20.8605 516.781 20.8605ZM524.061 22.25V9.03219H525.771V22.25H524.061ZM534.897 22.25V20.2549L534.808 19.8808V16.4783C534.808 15.7539 534.594 15.1957 534.166 14.8038C533.751 14.4001 533.121 14.1982 532.278 14.1982C531.72 14.1982 531.174 14.2932 530.639 14.4832C530.105 14.6613 529.654 14.9048 529.285 15.2136L528.573 13.931C529.06 13.5391 529.642 13.2422 530.319 13.0403C531.007 12.8265 531.726 12.7196 532.474 12.7196C533.769 12.7196 534.766 13.0343 535.467 13.6638C536.168 14.2932 536.518 15.2551 536.518 16.5496V22.25H534.897ZM531.797 22.3569C531.097 22.3569 530.479 22.2381 529.945 22.0006C529.422 21.7631 529.018 21.4365 528.733 21.0209C528.448 20.5933 528.306 20.1123 528.306 19.5779C528.306 19.0673 528.424 18.6041 528.662 18.1885C528.911 17.7728 529.309 17.4403 529.855 17.1909C530.414 16.9415 531.162 16.8168 532.1 16.8168H535.093V18.046H532.171C531.316 18.046 530.74 18.1885 530.443 18.4735C530.146 18.7585 529.998 19.1029 529.998 19.5067C529.998 19.9698 530.182 20.3439 530.55 20.6289C530.918 20.9021 531.429 21.0387 532.082 21.0387C532.724 21.0387 533.282 20.8962 533.757 20.6111C534.244 20.3261 534.594 19.9105 534.808 19.3642L535.146 20.5399C534.921 21.098 534.523 21.5434 533.953 21.8759C533.383 22.1966 532.664 22.3569 531.797 22.3569ZM542.925 22.3569C541.975 22.3569 541.238 22.1016 540.716 21.5909C540.193 21.0802 539.932 20.3499 539.932 19.3998V10.7423H541.642V19.3285C541.642 19.8392 541.767 20.2311 542.016 20.5043C542.277 20.7774 542.646 20.914 543.121 20.914C543.655 20.914 544.1 20.7655 544.457 20.4686L544.991 21.6978C544.73 21.9234 544.415 22.0897 544.047 22.1966C543.691 22.3034 543.317 22.3569 542.925 22.3569ZM538.329 14.216V12.8087H544.35V14.216H538.329ZM550.949 22.3569C549.94 22.3569 549.049 22.1491 548.277 21.7334C547.517 21.3177 546.924 20.7477 546.496 20.0233C546.08 19.2989 545.873 18.4675 545.873 17.5294C545.873 16.5912 546.074 15.7599 546.478 15.0354C546.894 14.311 547.458 13.7469 548.171 13.3431C548.895 12.9275 549.708 12.7196 550.611 12.7196C551.525 12.7196 552.333 12.9215 553.034 13.3253C553.734 13.7291 554.281 14.2991 554.673 15.0354C555.076 15.7599 555.278 16.609 555.278 17.5828C555.278 17.654 555.272 17.7372 555.26 17.8322C555.26 17.9272 555.254 18.0163 555.243 18.0994H547.209V16.8702H554.352L553.657 17.2978C553.669 16.6921 553.544 16.1518 553.283 15.6767C553.022 15.2017 552.66 14.8335 552.196 14.5723C551.745 14.2991 551.217 14.1626 550.611 14.1626C550.017 14.1626 549.489 14.2991 549.026 14.5723C548.562 14.8335 548.2 15.2076 547.939 15.6945C547.678 16.1696 547.547 16.7159 547.547 17.3334V17.6184C547.547 18.2478 547.69 18.8119 547.975 19.3107C548.271 19.7976 548.681 20.1777 549.204 20.4508C549.726 20.724 550.326 20.8605 551.003 20.8605C551.561 20.8605 552.066 20.7655 552.517 20.5755C552.98 20.3855 553.384 20.1005 553.728 19.7204L554.673 20.8249C554.245 21.3237 553.711 21.7037 553.069 21.965C552.44 22.2262 551.733 22.3569 550.949 22.3569ZM560.361 22.3569C559.577 22.3569 558.829 22.25 558.116 22.0362C557.415 21.8225 556.863 21.5612 556.459 21.2524L557.172 19.8986C557.576 20.1717 558.074 20.4033 558.668 20.5933C559.262 20.7833 559.868 20.8783 560.485 20.8783C561.281 20.8783 561.851 20.7655 562.195 20.5399C562.552 20.3142 562.73 19.9995 562.73 19.5957C562.73 19.2989 562.623 19.0673 562.409 18.901C562.195 18.7348 561.91 18.6101 561.554 18.5269C561.21 18.4438 560.824 18.3725 560.396 18.3132C559.969 18.2419 559.541 18.1588 559.114 18.0638C558.686 17.9569 558.294 17.8144 557.938 17.6362C557.582 17.4462 557.297 17.1909 557.083 16.8702C556.869 16.5377 556.762 16.0983 556.762 15.552C556.762 14.982 556.923 14.4832 557.243 14.0557C557.564 13.6281 558.015 13.3016 558.597 13.0759C559.191 12.8384 559.891 12.7196 560.699 12.7196C561.317 12.7196 561.94 12.7968 562.569 12.9512C563.211 13.0937 563.733 13.3016 564.137 13.5747L563.407 14.9285C562.979 14.6435 562.534 14.4476 562.071 14.3407C561.608 14.2338 561.144 14.1804 560.681 14.1804C559.933 14.1804 559.375 14.3051 559.007 14.5545C558.639 14.792 558.455 15.1007 558.455 15.4808C558.455 15.8014 558.561 16.0508 558.775 16.2289C559.001 16.3952 559.286 16.5258 559.63 16.6209C559.987 16.7159 560.378 16.799 560.806 16.8702C561.233 16.9296 561.661 17.0128 562.089 17.1196C562.516 17.2146 562.902 17.3512 563.246 17.5294C563.603 17.7075 563.888 17.9569 564.101 18.2775C564.327 18.5982 564.44 19.0257 564.44 19.5601C564.44 20.1302 564.274 20.623 563.941 21.0387C563.609 21.4543 563.14 21.7809 562.534 22.0184C561.928 22.2441 561.204 22.3569 560.361 22.3569Z" fill="black"/>
<path d="M603.122 22.3925C601.484 22.3925 600.195 21.9234 599.257 20.9852C598.319 20.047 597.85 18.6754 597.85 16.8702V9.78036H599.631V16.799C599.631 18.1885 599.934 19.2038 600.539 19.8451C601.157 20.4864 602.024 20.8071 603.14 20.8071C604.268 20.8071 605.135 20.4864 605.741 19.8451C606.359 19.2038 606.667 18.1885 606.667 16.799V9.78036H608.395V16.8702C608.395 18.6754 607.926 20.047 606.988 20.9852C606.062 21.9234 604.773 22.3925 603.122 22.3925ZM614.506 22.3569C613.722 22.3569 612.974 22.25 612.261 22.0362C611.56 21.8225 611.008 21.5612 610.604 21.2524L611.317 19.8986C611.721 20.1717 612.22 20.4033 612.813 20.5933C613.407 20.7833 614.013 20.8783 614.63 20.8783C615.426 20.8783 615.996 20.7655 616.34 20.5399C616.697 20.3142 616.875 19.9995 616.875 19.5957C616.875 19.2989 616.768 19.0673 616.554 18.901C616.34 18.7348 616.055 18.6101 615.699 18.5269C615.355 18.4438 614.969 18.3725 614.541 18.3132C614.114 18.2419 613.686 18.1588 613.259 18.0638C612.831 17.9569 612.439 17.8144 612.083 17.6362C611.727 17.4462 611.442 17.1909 611.228 16.8702C611.014 16.5377 610.907 16.0983 610.907 15.552C610.907 14.982 611.068 14.4832 611.388 14.0557C611.709 13.6281 612.16 13.3016 612.742 13.0759C613.336 12.8384 614.037 12.7196 614.844 12.7196C615.462 12.7196 616.085 12.7968 616.715 12.9512C617.356 13.0937 617.878 13.3016 618.282 13.5747L617.552 14.9285C617.124 14.6435 616.679 14.4476 616.216 14.3407C615.753 14.2338 615.289 14.1804 614.826 14.1804C614.078 14.1804 613.52 14.3051 613.152 14.5545C612.784 14.792 612.6 15.1007 612.6 15.4808C612.6 15.8014 612.706 16.0508 612.92 16.2289C613.146 16.3952 613.431 16.5258 613.775 16.6209C614.132 16.7159 614.523 16.799 614.951 16.8702C615.379 16.9296 615.806 17.0128 616.234 17.1196C616.661 17.2146 617.047 17.3512 617.391 17.5294C617.748 17.7075 618.033 17.9569 618.247 18.2775C618.472 18.5982 618.585 19.0257 618.585 19.5601C618.585 20.1302 618.419 20.623 618.086 21.0387C617.754 21.4543 617.285 21.7809 616.679 22.0184C616.073 22.2441 615.349 22.3569 614.506 22.3569ZM624.926 22.3569C623.917 22.3569 623.026 22.1491 622.254 21.7334C621.494 21.3177 620.9 20.7477 620.473 20.0233C620.057 19.2989 619.849 18.4675 619.849 17.5294C619.849 16.5912 620.051 15.7599 620.455 15.0354C620.871 14.311 621.435 13.7469 622.147 13.3431C622.872 12.9275 623.685 12.7196 624.588 12.7196C625.502 12.7196 626.31 12.9215 627.01 13.3253C627.711 13.7291 628.257 14.2991 628.649 15.0354C629.053 15.7599 629.255 16.609 629.255 17.5828C629.255 17.654 629.249 17.7372 629.237 17.8322C629.237 17.9272 629.231 18.0163 629.219 18.0994H621.185V16.8702H628.329L627.634 17.2978C627.646 16.6921 627.521 16.1518 627.26 15.6767C626.999 15.2017 626.636 14.8335 626.173 14.5723C625.722 14.2991 625.193 14.1626 624.588 14.1626C623.994 14.1626 623.466 14.2991 623.002 14.5723C622.539 14.8335 622.177 15.2076 621.916 15.6945C621.654 16.1696 621.524 16.7159 621.524 17.3334V17.6184C621.524 18.2478 621.666 18.8119 621.951 19.3107C622.248 19.7976 622.658 20.1777 623.181 20.4508C623.703 20.724 624.303 20.8605 624.98 20.8605C625.538 20.8605 626.043 20.7655 626.494 20.5755C626.957 20.3855 627.361 20.1005 627.705 19.7204L628.649 20.8249C628.222 21.3237 627.687 21.7037 627.046 21.965C626.417 22.2262 625.71 22.3569 624.926 22.3569ZM642.239 22.3925C641.289 22.3925 640.41 22.2381 639.602 21.9294C638.807 21.6087 638.112 21.1634 637.518 20.5933C636.936 20.0114 636.479 19.3345 636.146 18.5626C635.814 17.7906 635.648 16.9415 635.648 16.0152C635.648 15.0889 635.814 14.2397 636.146 13.4678C636.479 12.6959 636.942 12.0249 637.536 11.4549C638.13 10.8729 638.824 10.4276 639.62 10.1188C640.428 9.79818 641.307 9.63785 642.257 9.63785C643.219 9.63785 644.103 9.80412 644.911 10.1366C645.73 10.4573 646.425 10.9383 646.995 11.5796L645.837 12.7018C645.362 12.203 644.828 11.8349 644.234 11.5974C643.64 11.348 643.005 11.2233 642.328 11.2233C641.627 11.2233 640.974 11.342 640.368 11.5796C639.775 11.8171 639.258 12.1496 638.819 12.5771C638.379 13.0047 638.035 13.5153 637.785 14.1091C637.548 14.691 637.429 15.3264 637.429 16.0152C637.429 16.704 637.548 17.3453 637.785 17.9391C638.035 18.521 638.379 19.0257 638.819 19.4532C639.258 19.8808 639.775 20.2133 640.368 20.4508C640.974 20.6883 641.627 20.8071 642.328 20.8071C643.005 20.8071 643.64 20.6883 644.234 20.4508C644.828 20.2014 645.362 19.8214 645.837 19.3107L646.995 20.433C646.425 21.0743 645.73 21.5612 644.911 21.8937C644.103 22.2262 643.213 22.3925 642.239 22.3925ZM655.026 22.25V20.2549L654.937 19.8808V16.4783C654.937 15.7539 654.723 15.1957 654.295 14.8038C653.88 14.4001 653.25 14.1982 652.407 14.1982C651.849 14.1982 651.303 14.2932 650.768 14.4832C650.234 14.6613 649.783 14.9048 649.415 15.2136L648.702 13.931C649.189 13.5391 649.771 13.2422 650.448 13.0403C651.137 12.8265 651.855 12.7196 652.603 12.7196C653.898 12.7196 654.895 13.0343 655.596 13.6638C656.297 14.2932 656.647 15.2551 656.647 16.5496V22.25H655.026ZM651.926 22.3569C651.226 22.3569 650.608 22.2381 650.074 22.0006C649.551 21.7631 649.147 21.4365 648.862 21.0209C648.577 20.5933 648.435 20.1123 648.435 19.5779C648.435 19.0673 648.554 18.6041 648.791 18.1885C649.04 17.7728 649.438 17.4403 649.985 17.1909C650.543 16.9415 651.291 16.8168 652.229 16.8168H655.222V18.046H652.3C651.445 18.046 650.869 18.1885 650.572 18.4735C650.276 18.7585 650.127 19.1029 650.127 19.5067C650.127 19.9698 650.311 20.3439 650.679 20.6289C651.047 20.9021 651.558 21.0387 652.211 21.0387C652.853 21.0387 653.411 20.8962 653.886 20.6111C654.373 20.3261 654.723 19.9105 654.937 19.3642L655.275 20.5399C655.05 21.098 654.652 21.5434 654.082 21.8759C653.512 22.1966 652.793 22.3569 651.926 22.3569ZM662.519 22.3569C661.736 22.3569 660.987 22.25 660.275 22.0362C659.574 21.8225 659.022 21.5612 658.618 21.2524L659.331 19.8986C659.734 20.1717 660.233 20.4033 660.827 20.5933C661.421 20.7833 662.026 20.8783 662.644 20.8783C663.44 20.8783 664.01 20.7655 664.354 20.5399C664.71 20.3142 664.889 19.9995 664.889 19.5957C664.889 19.2989 664.782 19.0673 664.568 18.901C664.354 18.7348 664.069 18.6101 663.713 18.5269C663.368 18.4438 662.982 18.3725 662.555 18.3132C662.127 18.2419 661.7 18.1588 661.272 18.0638C660.845 17.9569 660.453 17.8144 660.097 17.6362C659.74 17.4462 659.455 17.1909 659.242 16.8702C659.028 16.5377 658.921 16.0983 658.921 15.552C658.921 14.982 659.081 14.4832 659.402 14.0557C659.723 13.6281 660.174 13.3016 660.756 13.0759C661.35 12.8384 662.05 12.7196 662.858 12.7196C663.475 12.7196 664.099 12.7968 664.728 12.9512C665.37 13.0937 665.892 13.3016 666.296 13.5747L665.565 14.9285C665.138 14.6435 664.693 14.4476 664.229 14.3407C663.766 14.2338 663.303 14.1804 662.84 14.1804C662.092 14.1804 661.534 14.3051 661.165 14.5545C660.797 14.792 660.613 15.1007 660.613 15.4808C660.613 15.8014 660.72 16.0508 660.934 16.2289C661.16 16.3952 661.445 16.5258 661.789 16.6209C662.145 16.7159 662.537 16.799 662.965 16.8702C663.392 16.9296 663.82 17.0128 664.247 17.1196C664.675 17.2146 665.061 17.3512 665.405 17.5294C665.761 17.7075 666.046 17.9569 666.26 18.2775C666.486 18.5982 666.599 19.0257 666.599 19.5601C666.599 20.1302 666.432 20.623 666.1 21.0387C665.767 21.4543 665.298 21.7809 664.693 22.0184C664.087 22.2441 663.362 22.3569 662.519 22.3569ZM672.94 22.3569C671.93 22.3569 671.04 22.1491 670.268 21.7334C669.508 21.3177 668.914 20.7477 668.487 20.0233C668.071 19.2989 667.863 18.4675 667.863 17.5294C667.863 16.5912 668.065 15.7599 668.469 15.0354C668.884 14.311 669.448 13.7469 670.161 13.3431C670.885 12.9275 671.699 12.7196 672.601 12.7196C673.516 12.7196 674.323 12.9215 675.024 13.3253C675.725 13.7291 676.271 14.2991 676.663 15.0354C677.067 15.7599 677.269 16.609 677.269 17.5828C677.269 17.654 677.263 17.7372 677.251 17.8322C677.251 17.9272 677.245 18.0163 677.233 18.0994H669.199V16.8702H676.342L675.648 17.2978C675.66 16.6921 675.535 16.1518 675.274 15.6767C675.012 15.2017 674.65 14.8335 674.187 14.5723C673.736 14.2991 673.207 14.1626 672.601 14.1626C672.008 14.1626 671.479 14.2991 671.016 14.5723C670.553 14.8335 670.191 15.2076 669.929 15.6945C669.668 16.1696 669.538 16.7159 669.538 17.3334V17.6184C669.538 18.2478 669.68 18.8119 669.965 19.3107C670.262 19.7976 670.672 20.1777 671.194 20.4508C671.717 20.724 672.316 20.8605 672.993 20.8605C673.552 20.8605 674.056 20.7655 674.508 20.5755C674.971 20.3855 675.374 20.1005 675.719 19.7204L676.663 20.8249C676.235 21.3237 675.701 21.7037 675.06 21.965C674.43 22.2262 673.724 22.3569 672.94 22.3569ZM682.351 22.3569C681.567 22.3569 680.819 22.25 680.107 22.0362C679.406 21.8225 678.854 21.5612 678.45 21.2524L679.162 19.8986C679.566 20.1717 680.065 20.4033 680.659 20.5933C681.253 20.7833 681.858 20.8783 682.476 20.8783C683.271 20.8783 683.841 20.7655 684.186 20.5399C684.542 20.3142 684.72 19.9995 684.72 19.5957C684.72 19.2989 684.613 19.0673 684.4 18.901C684.186 18.7348 683.901 18.6101 683.545 18.5269C683.2 18.4438 682.814 18.3725 682.387 18.3132C681.959 18.2419 681.532 18.1588 681.104 18.0638C680.677 17.9569 680.285 17.8144 679.928 17.6362C679.572 17.4462 679.287 17.1909 679.073 16.8702C678.86 16.5377 678.753 16.0983 678.753 15.552C678.753 14.982 678.913 14.4832 679.234 14.0557C679.554 13.6281 680.006 13.3016 680.587 13.0759C681.181 12.8384 681.882 12.7196 682.689 12.7196C683.307 12.7196 683.931 12.7968 684.56 12.9512C685.201 13.0937 685.724 13.3016 686.128 13.5747L685.397 14.9285C684.97 14.6435 684.524 14.4476 684.061 14.3407C683.598 14.2338 683.135 14.1804 682.672 14.1804C681.924 14.1804 681.365 14.3051 680.997 14.5545C680.629 14.792 680.445 15.1007 680.445 15.4808C680.445 15.8014 680.552 16.0508 680.766 16.2289C680.991 16.3952 681.276 16.5258 681.621 16.6209C681.977 16.7159 682.369 16.799 682.796 16.8702C683.224 16.9296 683.651 17.0128 684.079 17.1196C684.507 17.2146 684.892 17.3512 685.237 17.5294C685.593 17.7075 685.878 17.9569 686.092 18.2775C686.318 18.5982 686.43 19.0257 686.43 19.5601C686.43 20.1302 686.264 20.623 685.932 21.0387C685.599 21.4543 685.13 21.7809 684.524 22.0184C683.919 22.2441 683.194 22.3569 682.351 22.3569Z" fill="black"/>
<path d="M719.956 22.25V9.78036H725.55C726.987 9.78036 728.091 10.0713 728.863 10.6532C729.635 11.2233 730.021 12.0071 730.021 13.0047C730.021 13.6816 729.867 14.2516 729.558 14.7148C729.261 15.1779 728.857 15.5342 728.347 15.7836C727.836 16.033 727.284 16.1577 726.69 16.1577L727.011 15.6233C727.723 15.6233 728.353 15.748 728.899 15.9974C729.445 16.2468 729.879 16.6149 730.199 17.1018C730.52 17.5769 730.68 18.1706 730.68 18.8832C730.68 19.952 730.276 20.7833 729.469 21.3771C728.673 21.959 727.486 22.25 725.906 22.25H719.956ZM721.738 20.8071H725.835C726.821 20.8071 727.575 20.6408 728.097 20.3083C728.62 19.9758 728.881 19.4532 728.881 18.7407C728.881 18.0163 728.62 17.4878 728.097 17.1553C727.575 16.8227 726.821 16.6565 725.835 16.6565H721.577V15.2136H725.39C726.292 15.2136 726.993 15.0473 727.492 14.7148C727.99 14.3823 728.24 13.8835 728.24 13.2184C728.24 12.5534 727.99 12.0546 727.492 11.7221C726.993 11.3895 726.292 11.2233 725.39 11.2233H721.738V20.8071ZM733.189 22.25V9.03219H734.899V22.25H733.189ZM742.208 22.3569C741.258 22.3569 740.415 22.1491 739.679 21.7334C738.942 21.3177 738.36 20.7477 737.933 20.0233C737.505 19.287 737.292 18.4557 737.292 17.5294C737.292 16.5912 737.505 15.7599 737.933 15.0354C738.36 14.311 738.942 13.7469 739.679 13.3431C740.415 12.9275 741.258 12.7196 742.208 12.7196C743.146 12.7196 743.984 12.9275 744.72 13.3431C745.468 13.7469 746.05 14.311 746.466 15.0354C746.893 15.748 747.107 16.5793 747.107 17.5294C747.107 18.4675 746.893 19.2989 746.466 20.0233C746.05 20.7477 745.468 21.3177 744.72 21.7334C743.984 22.1491 743.146 22.3569 742.208 22.3569ZM742.208 20.8605C742.814 20.8605 743.354 20.724 743.829 20.4508C744.316 20.1777 744.696 19.7917 744.969 19.2929C745.242 18.7823 745.379 18.1944 745.379 17.5294C745.379 16.8524 745.242 16.2705 744.969 15.7836C744.696 15.2848 744.316 14.8989 743.829 14.6257C743.354 14.3526 742.814 14.216 742.208 14.216C741.602 14.216 741.062 14.3526 740.587 14.6257C740.112 14.8989 739.732 15.2848 739.447 15.7836C739.162 16.2705 739.019 16.8524 739.019 17.5294C739.019 18.1944 739.162 18.7823 739.447 19.2929C739.732 19.7917 740.112 20.1777 740.587 20.4508C741.062 20.724 741.602 20.8605 742.208 20.8605ZM753.605 25.8128C752.738 25.8128 751.895 25.6881 751.075 25.4387C750.268 25.2011 749.609 24.8567 749.098 24.4055L749.917 23.0872C750.357 23.4673 750.897 23.7642 751.538 23.9779C752.18 24.2036 752.851 24.3164 753.551 24.3164C754.668 24.3164 755.487 24.0551 756.01 23.5326C756.532 23.0101 756.793 22.2144 756.793 21.1455V19.1504L756.972 17.28L756.883 15.3917V12.8087H758.504V20.9674C758.504 22.63 758.088 23.8532 757.257 24.637C756.425 25.4209 755.208 25.8128 753.605 25.8128ZM753.391 21.8581C752.477 21.8581 751.657 21.6681 750.933 21.2881C750.22 20.8962 749.65 20.3558 749.223 19.667C748.807 18.9782 748.599 18.1825 748.599 17.28C748.599 16.3655 748.807 15.5698 749.223 14.8929C749.65 14.2041 750.22 13.6697 750.933 13.2897C751.657 12.9096 752.477 12.7196 753.391 12.7196C754.199 12.7196 754.935 12.8859 755.6 13.2184C756.265 13.5391 756.793 14.0379 757.185 14.7148C757.589 15.3917 757.791 16.2468 757.791 17.28C757.791 18.3013 757.589 19.1504 757.185 19.8273C756.793 20.5043 756.265 21.0149 755.6 21.3593C754.935 21.6918 754.199 21.8581 753.391 21.8581ZM753.587 20.3617C754.216 20.3617 754.775 20.2311 755.261 19.9698C755.748 19.7086 756.128 19.3464 756.402 18.8832C756.687 18.42 756.829 17.8856 756.829 17.28C756.829 16.6743 756.687 16.1399 756.402 15.6767C756.128 15.2136 755.748 14.8573 755.261 14.6079C754.775 14.3466 754.216 14.216 753.587 14.216C752.958 14.216 752.393 14.3466 751.895 14.6079C751.408 14.8573 751.022 15.2136 750.737 15.6767C750.464 16.1399 750.327 16.6743 750.327 17.28C750.327 17.8856 750.464 18.42 750.737 18.8832C751.022 19.3464 751.408 19.7086 751.895 19.9698C752.393 20.2311 752.958 20.3617 753.587 20.3617Z" fill="black"/>
<path d="M792.068 22.25L797.715 9.78036H799.479L805.143 22.25H803.273L798.232 10.7779H798.944L793.903 22.25H792.068ZM794.473 19.1326L794.954 17.7075H801.973L802.489 19.1326H794.473ZM811.76 22.3569C810.952 22.3569 810.222 22.1787 809.569 21.8225C808.927 21.4543 808.417 20.914 808.037 20.2014C807.669 19.4889 807.485 18.5982 807.485 17.5294C807.485 16.4605 807.675 15.5698 808.055 14.8573C808.446 14.1447 808.963 13.6103 809.604 13.254C810.258 12.8978 810.976 12.7196 811.76 12.7196C812.686 12.7196 813.506 12.9215 814.218 13.3253C814.931 13.7291 815.495 14.2932 815.91 15.0176C816.326 15.7302 816.534 16.5674 816.534 17.5294C816.534 18.4913 816.326 19.3345 815.91 20.0589C815.495 20.7833 814.931 21.3474 814.218 21.7512C813.506 22.155 812.686 22.3569 811.76 22.3569ZM806.754 22.25V9.03219H808.464V15.3204L808.286 17.5115L808.393 19.7026V22.25H806.754ZM811.617 20.8605C812.223 20.8605 812.763 20.724 813.238 20.4508C813.725 20.1777 814.105 19.7917 814.378 19.2929C814.663 18.7823 814.806 18.1944 814.806 17.5294C814.806 16.8524 814.663 16.2705 814.378 15.7836C814.105 15.2848 813.725 14.8989 813.238 14.6257C812.763 14.3526 812.223 14.216 811.617 14.216C811.024 14.216 810.483 14.3526 809.996 14.6257C809.521 14.8989 809.141 15.2848 808.856 15.7836C808.583 16.2705 808.446 16.8524 808.446 17.5294C808.446 18.1944 808.583 18.7823 808.856 19.2929C809.141 19.7917 809.521 20.1777 809.996 20.4508C810.483 20.724 811.024 20.8605 811.617 20.8605ZM822.94 22.3569C821.99 22.3569 821.147 22.1491 820.411 21.7334C819.675 21.3177 819.093 20.7477 818.665 20.0233C818.238 19.287 818.024 18.4557 818.024 17.5294C818.024 16.5912 818.238 15.7599 818.665 15.0354C819.093 14.311 819.675 13.7469 820.411 13.3431C821.147 12.9275 821.99 12.7196 822.94 12.7196C823.879 12.7196 824.716 12.9275 825.452 13.3431C826.2 13.7469 826.782 14.311 827.198 15.0354C827.626 15.748 827.839 16.5793 827.839 17.5294C827.839 18.4675 827.626 19.2989 827.198 20.0233C826.782 20.7477 826.2 21.3177 825.452 21.7334C824.716 22.1491 823.879 22.3569 822.94 22.3569ZM822.94 20.8605C823.546 20.8605 824.087 20.724 824.562 20.4508C825.048 20.1777 825.428 19.7917 825.702 19.2929C825.975 18.7823 826.111 18.1944 826.111 17.5294C826.111 16.8524 825.975 16.2705 825.702 15.7836C825.428 15.2848 825.048 14.8989 824.562 14.6257C824.087 14.3526 823.546 14.216 822.94 14.216C822.335 14.216 821.794 14.3526 821.319 14.6257C820.844 14.8989 820.464 15.2848 820.179 15.7836C819.894 16.2705 819.752 16.8524 819.752 17.5294C819.752 18.1944 819.894 18.7823 820.179 19.2929C820.464 19.7917 820.844 20.1777 821.319 20.4508C821.794 20.724 822.335 20.8605 822.94 20.8605ZM834.177 22.3569C833.369 22.3569 832.657 22.2084 832.039 21.9115C831.433 21.6146 830.958 21.1634 830.614 20.5577C830.282 19.9401 830.115 19.1682 830.115 18.2419V12.8087H831.825V18.046C831.825 18.9723 832.045 19.667 832.484 20.1302C832.936 20.5933 833.565 20.8249 834.373 20.8249C834.967 20.8249 835.483 20.7061 835.923 20.4686C836.362 20.2192 836.7 19.863 836.938 19.3998C837.175 18.9248 837.294 18.3547 837.294 17.6897V12.8087H839.004V22.25H837.383V19.7026L837.65 20.3796C837.342 21.009 836.879 21.4959 836.261 21.8403C835.643 22.1847 834.949 22.3569 834.177 22.3569ZM845.502 22.3569C844.552 22.3569 843.816 22.1016 843.293 21.5909C842.771 21.0802 842.509 20.3499 842.509 19.3998V10.7423H844.219V19.3285C844.219 19.8392 844.344 20.2311 844.594 20.5043C844.855 20.7774 845.223 20.914 845.698 20.914C846.232 20.914 846.678 20.7655 847.034 20.4686L847.568 21.6978C847.307 21.9234 846.992 22.0897 846.624 22.1966C846.268 22.3034 845.894 22.3569 845.502 22.3569ZM840.906 14.216V12.8087H846.927V14.216H840.906Z" fill="black"/>
</svg>
