<svg width="45" height="44" viewBox="0 0 45 44" fill="none" xmlns="http://www.w3.org/2000/svg">
<rect x="1" y="0.5" width="43" height="43" rx="21.5" stroke="#84878C"/>
<g clip-path="url(#clip0_331_89)">
<path d="M28.7757 26.0501L27.2795 23.5976V20.1213C27.3327 19.1971 27.1232 18.2766 26.6753 17.4663C26.2274 16.6561 25.5593 15.9891 24.7482 15.5426C24.7591 15.4003 24.7591 15.2574 24.7482 15.1151C24.7395 14.8284 24.6744 14.5463 24.5565 14.2849C24.4387 14.0234 24.2705 13.7877 24.0615 13.5913C23.8526 13.3949 23.607 13.2416 23.3387 13.1401C23.0705 13.0387 22.7849 12.9911 22.4982 13.0001C22.2116 12.9911 21.926 13.0387 21.6577 13.1401C21.3895 13.2416 21.1439 13.3949 20.9349 13.5913C20.7259 13.7877 20.5577 14.0234 20.4399 14.2849C20.3221 14.5463 20.2569 14.8284 20.2482 15.1151C20.2312 15.2571 20.2312 15.4006 20.2482 15.5426C19.4372 15.9891 18.7691 16.6561 18.3212 17.4663C17.8732 18.2766 17.6638 19.1971 17.717 20.1213V23.5976L16.2207 26.0501C16.0913 26.2627 16.0206 26.5058 16.0159 26.7547C16.0112 27.0035 16.0726 27.2492 16.1938 27.4665C16.3151 27.6839 16.4918 27.8651 16.7061 27.9918C16.9203 28.1185 17.1643 28.1861 17.4132 28.1876H19.4045C19.4565 28.9654 19.8078 29.6928 20.3846 30.2172C20.9615 30.7416 21.719 31.0222 22.4982 31.0001C23.2775 31.0222 24.035 30.7416 24.6118 30.2172C25.1886 29.6928 25.5399 28.9654 25.592 28.1876H27.5832C27.8321 28.1861 28.0761 28.1185 28.2904 27.9918C28.5046 27.8651 28.6814 27.6839 28.8026 27.4665C28.9239 27.2492 28.9853 27.0035 28.9806 26.7547C28.9758 26.5058 28.9051 26.2627 28.7757 26.0501ZM21.6545 15.1151C21.6745 14.9101 21.774 14.7211 21.9317 14.5886C22.0895 14.4561 22.2928 14.3907 22.4982 14.4063C22.7036 14.3907 22.907 14.4561 23.0647 14.5886C23.2224 14.7211 23.322 14.9101 23.342 15.1151C23.061 15.0975 22.7792 15.0975 22.4982 15.1151C22.2172 15.0975 21.9354 15.0975 21.6545 15.1151ZM22.4982 29.5938C22.0917 29.6143 21.6924 29.481 21.3797 29.2204C21.067 28.9598 20.8639 28.5911 20.8107 28.1876H24.1857C24.1325 28.5911 23.9294 28.9598 23.6167 29.2204C23.304 29.481 22.9047 29.6143 22.4982 29.5938ZM17.4132 26.7813L18.9207 24.3401L19.1232 23.9914V20.1213C19.1205 19.2788 19.3544 18.4525 19.7982 17.7363C20.1045 17.3166 20.514 16.9832 20.987 16.7683C21.4601 16.5535 21.9807 16.4645 22.4982 16.5101C23.0158 16.4645 23.5363 16.5535 24.0094 16.7683C24.4825 16.9832 24.892 17.3166 25.1982 17.7363C25.642 18.4525 25.8759 19.2788 25.8732 20.1213V23.9914L26.0757 24.3401L27.5832 26.7813H17.4132Z" fill="#84878C"/>
</g>
<defs>
<clipPath id="clip0_331_89">
<rect width="18" height="18" fill="white" transform="translate(13.5 13)"/>
</clipPath>
</defs>
</svg>
