<svg width="51" height="51" viewBox="0 0 51 51" fill="none" xmlns="http://www.w3.org/2000/svg">
<rect width="51" height="51" rx="25.5" fill="#EEF8EF"/>
<g clip-path="url(#clip0_1005_20)">
<path d="M19.1104 29.1346C19.1104 30.509 17.9895 31.6316 16.6149 31.6316C15.2404 31.6316 14.1182 30.509 14.1182 29.1346C14.1182 27.7603 15.2407 26.6377 16.6151 26.6377H19.1105L19.1104 29.1346ZM20.3683 29.1346C20.3683 27.7603 21.4909 26.6377 22.8652 26.6377C24.2396 26.6377 25.3622 27.7601 25.3622 29.1346V35.3849C25.3622 36.7593 24.2398 37.8819 22.8652 37.8819C21.4909 37.8819 20.3683 36.7593 20.3683 35.3849V29.1346Z" fill="#DE1C59"/>
<path d="M22.8652 19.1104C21.4909 19.1104 20.3683 17.9895 20.3683 16.6149C20.3683 15.2404 21.4909 14.1182 22.8652 14.1182C24.2396 14.1182 25.3622 15.2407 25.3622 16.6151V19.1105L22.8652 19.1104ZM22.8652 20.3683C24.2396 20.3683 25.3622 21.4909 25.3622 22.8652C25.3622 24.2396 24.2398 25.3622 22.8652 25.3622H16.6149C15.2405 25.3622 14.1182 24.2398 14.1182 22.8652C14.1182 21.4909 15.2407 20.3683 16.6151 20.3683H22.8652Z" fill="#35C5F0"/>
<path d="M32.8895 22.8652C32.8895 21.4909 34.0104 20.3683 35.3849 20.3683C36.7595 20.3683 37.8819 21.4909 37.8819 22.8652C37.8819 24.2396 36.7593 25.3622 35.3849 25.3622H32.8895V22.8652ZM31.6316 22.8652C31.6316 24.2396 30.509 25.3622 29.1346 25.3622C27.7603 25.3622 26.6377 24.2398 26.6377 22.8652V16.6149C26.6377 15.2405 27.7601 14.1182 29.1346 14.1182C30.509 14.1182 31.6316 15.2407 31.6316 16.6151V22.8652Z" fill="#2EB57D"/>
<path d="M29.1346 32.8895C30.509 32.8895 31.6316 34.0104 31.6316 35.3849C31.6316 36.7595 30.509 37.8819 29.1346 37.8819C27.7603 37.8819 26.6377 36.7593 26.6377 35.3849V32.8895H29.1346ZM29.1346 31.6316C27.7603 31.6316 26.6377 30.509 26.6377 29.1346C26.6377 27.7603 27.7601 26.6377 29.1346 26.6377H35.3849C36.7593 26.6377 37.8819 27.7601 37.8819 29.1346C37.8819 30.509 36.7593 31.6316 35.3849 31.6316H29.1346Z" fill="#EBB02E"/>
</g>
<defs>
<clipPath id="clip0_1005_20">
<rect width="24" height="24" fill="white" transform="translate(14 14)"/>
</clipPath>
</defs>
</svg>
