<svg width="609" height="317" viewBox="0 0 609 317" fill="none" xmlns="http://www.w3.org/2000/svg">
<rect x="0.345855" y="139.346" width="690.308" height="177.308" rx="6.57124" fill="#FBF5E5"/>
<rect x="0.345855" y="139.346" width="690.308" height="177.308" rx="6.57124" stroke="#EA4330" stroke-width="0.69171" stroke-dasharray="1.38 1.38"/>
<rect x="24.5332" y="197.275" width="148.026" height="12.4508" rx="6.22539" fill="#F0E8D5"/>
<rect x="189.852" y="197" width="370" height="13" rx="6.5" fill="#F0E8D5"/>
<rect x="27.9922" y="221.21" width="109.29" height="12.4508" rx="6.22539" fill="#F0E8D5"/>
<rect x="158.033" y="221.435" width="502" height="12" rx="6" fill="#F0E8D5"/>
<rect x="33.5254" y="245.42" width="109.29" height="12.4508" rx="6.22539" fill="#F0E8D5"/>
<rect x="163.566" y="245.645" width="502" height="12" rx="6" fill="#F0E8D5"/>
<rect x="19" y="269.629" width="109.29" height="12.4508" rx="6.22539" fill="#F0E8D5"/>
<rect x="149.041" y="269.855" width="502" height="12" rx="6" fill="#F0E8D5"/>
<rect x="40.4434" y="294.114" width="109.29" height="12.4508" rx="6.22539" fill="#F0E8D5"/>
<rect x="170.484" y="293.839" width="502" height="13" rx="6.5" fill="#F0E8D5"/>
<path d="M241.89 165V152.4H243.366L251.7 162.75H250.926V152.4H252.726V165H251.25L242.916 154.65H243.69V165H241.89ZM260.331 165.108C259.371 165.108 258.519 164.898 257.775 164.478C257.031 164.058 256.443 163.482 256.011 162.75C255.579 162.006 255.363 161.166 255.363 160.23C255.363 159.282 255.579 158.442 256.011 157.71C256.443 156.978 257.031 156.408 257.775 156C258.519 155.58 259.371 155.37 260.331 155.37C261.279 155.37 262.125 155.58 262.869 156C263.625 156.408 264.213 156.978 264.633 157.71C265.065 158.43 265.281 159.27 265.281 160.23C265.281 161.178 265.065 162.018 264.633 162.75C264.213 163.482 263.625 164.058 262.869 164.478C262.125 164.898 261.279 165.108 260.331 165.108ZM260.331 163.596C260.943 163.596 261.489 163.458 261.969 163.182C262.461 162.906 262.845 162.516 263.121 162.012C263.397 161.496 263.535 160.902 263.535 160.23C263.535 159.546 263.397 158.958 263.121 158.466C262.845 157.962 262.461 157.572 261.969 157.296C261.489 157.02 260.943 156.882 260.331 156.882C259.719 156.882 259.173 157.02 258.693 157.296C258.213 157.572 257.829 157.962 257.541 158.466C257.253 158.958 257.109 159.546 257.109 160.23C257.109 160.902 257.253 161.496 257.541 162.012C257.829 162.516 258.213 162.906 258.693 163.182C259.173 163.458 259.719 163.596 260.331 163.596ZM270.947 165.108C269.987 165.108 269.243 164.85 268.715 164.334C268.187 163.818 267.923 163.08 267.923 162.12V153.372H269.651V162.048C269.651 162.564 269.777 162.96 270.029 163.236C270.293 163.512 270.665 163.65 271.145 163.65C271.685 163.65 272.135 163.5 272.495 163.2L273.035 164.442C272.771 164.67 272.453 164.838 272.081 164.946C271.721 165.054 271.343 165.108 270.947 165.108ZM266.303 156.882V155.46H272.387V156.882H266.303ZM275.124 165V155.46H276.852V165H275.124ZM275.988 153.624C275.652 153.624 275.37 153.516 275.142 153.3C274.926 153.084 274.818 152.82 274.818 152.508C274.818 152.184 274.926 151.914 275.142 151.698C275.37 151.482 275.652 151.374 275.988 151.374C276.324 151.374 276.6 151.482 276.816 151.698C277.044 151.902 277.158 152.16 277.158 152.472C277.158 152.796 277.05 153.072 276.834 153.3C276.618 153.516 276.336 153.624 275.988 153.624ZM280.404 165V154.614C280.404 153.678 280.674 152.934 281.214 152.382C281.766 151.818 282.546 151.536 283.554 151.536C283.926 151.536 284.28 151.584 284.616 151.68C284.964 151.764 285.258 151.902 285.498 152.094L284.976 153.408C284.796 153.264 284.592 153.156 284.364 153.084C284.136 153 283.896 152.958 283.644 152.958C283.14 152.958 282.756 153.102 282.492 153.39C282.228 153.666 282.096 154.08 282.096 154.632V155.91L282.132 156.702V165H280.404ZM278.784 156.882V155.46H284.868V156.882H278.784ZM286.506 165V155.46H288.234V165H286.506ZM287.37 153.624C287.034 153.624 286.752 153.516 286.524 153.3C286.308 153.084 286.2 152.82 286.2 152.508C286.2 152.184 286.308 151.914 286.524 151.698C286.752 151.482 287.034 151.374 287.37 151.374C287.706 151.374 287.982 151.482 288.198 151.698C288.426 151.902 288.54 152.16 288.54 152.472C288.54 152.796 288.432 153.072 288.216 153.3C288 153.516 287.718 153.624 287.37 153.624ZM295.683 165.108C294.711 165.108 293.841 164.898 293.073 164.478C292.317 164.058 291.723 163.482 291.291 162.75C290.859 162.018 290.643 161.178 290.643 160.23C290.643 159.282 290.859 158.442 291.291 157.71C291.723 156.978 292.317 156.408 293.073 156C293.841 155.58 294.711 155.37 295.683 155.37C296.547 155.37 297.315 155.544 297.987 155.892C298.671 156.228 299.199 156.732 299.571 157.404L298.257 158.25C297.945 157.782 297.561 157.44 297.105 157.224C296.661 156.996 296.181 156.882 295.665 156.882C295.041 156.882 294.483 157.02 293.991 157.296C293.499 157.572 293.109 157.962 292.821 158.466C292.533 158.958 292.389 159.546 292.389 160.23C292.389 160.914 292.533 161.508 292.821 162.012C293.109 162.516 293.499 162.906 293.991 163.182C294.483 163.458 295.041 163.596 295.665 163.596C296.181 163.596 296.661 163.488 297.105 163.272C297.561 163.044 297.945 162.696 298.257 162.228L299.571 163.056C299.199 163.716 298.671 164.226 297.987 164.586C297.315 164.934 296.547 165.108 295.683 165.108ZM307.73 165V162.984L307.64 162.606V159.168C307.64 158.436 307.424 157.872 306.992 157.476C306.572 157.068 305.936 156.864 305.084 156.864C304.52 156.864 303.968 156.96 303.428 157.152C302.888 157.332 302.432 157.578 302.06 157.89L301.34 156.594C301.832 156.198 302.42 155.898 303.104 155.694C303.8 155.478 304.526 155.37 305.282 155.37C306.59 155.37 307.598 155.688 308.306 156.324C309.014 156.96 309.368 157.932 309.368 159.24V165H307.73ZM304.598 165.108C303.89 165.108 303.266 164.988 302.726 164.748C302.198 164.508 301.79 164.178 301.502 163.758C301.214 163.326 301.07 162.84 301.07 162.3C301.07 161.784 301.19 161.316 301.43 160.896C301.682 160.476 302.084 160.14 302.636 159.888C303.2 159.636 303.956 159.51 304.904 159.51H307.928V160.752H304.976C304.112 160.752 303.53 160.896 303.23 161.184C302.93 161.472 302.78 161.82 302.78 162.228C302.78 162.696 302.966 163.074 303.338 163.362C303.71 163.638 304.226 163.776 304.886 163.776C305.534 163.776 306.098 163.632 306.578 163.344C307.07 163.056 307.424 162.636 307.64 162.084L307.982 163.272C307.754 163.836 307.352 164.286 306.776 164.622C306.2 164.946 305.474 165.108 304.598 165.108ZM315.842 165.108C314.882 165.108 314.138 164.85 313.61 164.334C313.082 163.818 312.818 163.08 312.818 162.12V153.372H314.546V162.048C314.546 162.564 314.672 162.96 314.924 163.236C315.188 163.512 315.56 163.65 316.04 163.65C316.58 163.65 317.03 163.5 317.39 163.2L317.93 164.442C317.666 164.67 317.348 164.838 316.976 164.946C316.616 165.054 316.238 165.108 315.842 165.108ZM311.198 156.882V155.46H317.282V156.882H311.198ZM320.019 165V155.46H321.747V165H320.019ZM320.883 153.624C320.547 153.624 320.265 153.516 320.037 153.3C319.821 153.084 319.713 152.82 319.713 152.508C319.713 152.184 319.821 151.914 320.037 151.698C320.265 151.482 320.547 151.374 320.883 151.374C321.219 151.374 321.495 151.482 321.711 151.698C321.939 151.902 322.053 152.16 322.053 152.472C322.053 152.796 321.945 153.072 321.729 153.3C321.513 153.516 321.231 153.624 320.883 153.624ZM329.132 165.108C328.172 165.108 327.32 164.898 326.576 164.478C325.832 164.058 325.244 163.482 324.812 162.75C324.38 162.006 324.164 161.166 324.164 160.23C324.164 159.282 324.38 158.442 324.812 157.71C325.244 156.978 325.832 156.408 326.576 156C327.32 155.58 328.172 155.37 329.132 155.37C330.08 155.37 330.926 155.58 331.67 156C332.426 156.408 333.014 156.978 333.434 157.71C333.866 158.43 334.082 159.27 334.082 160.23C334.082 161.178 333.866 162.018 333.434 162.75C333.014 163.482 332.426 164.058 331.67 164.478C330.926 164.898 330.08 165.108 329.132 165.108ZM329.132 163.596C329.744 163.596 330.29 163.458 330.77 163.182C331.262 162.906 331.646 162.516 331.922 162.012C332.198 161.496 332.336 160.902 332.336 160.23C332.336 159.546 332.198 158.958 331.922 158.466C331.646 157.962 331.262 157.572 330.77 157.296C330.29 157.02 329.744 156.882 329.132 156.882C328.52 156.882 327.974 157.02 327.494 157.296C327.014 157.572 326.63 157.962 326.342 158.466C326.054 158.958 325.91 159.546 325.91 160.23C325.91 160.902 326.054 161.496 326.342 162.012C326.63 162.516 327.014 162.906 327.494 163.182C327.974 163.458 328.52 163.596 329.132 163.596ZM341.566 155.37C342.346 155.37 343.03 155.52 343.618 155.82C344.218 156.12 344.686 156.576 345.022 157.188C345.358 157.8 345.526 158.574 345.526 159.51V165H343.798V159.708C343.798 158.784 343.57 158.088 343.114 157.62C342.67 157.152 342.04 156.918 341.224 156.918C340.612 156.918 340.078 157.038 339.622 157.278C339.166 157.518 338.812 157.872 338.56 158.34C338.32 158.808 338.2 159.39 338.2 160.086V165H336.472V155.46H338.128V158.034L337.858 157.35C338.17 156.726 338.65 156.24 339.298 155.892C339.946 155.544 340.702 155.37 341.566 155.37ZM351.46 165.108C350.668 165.108 349.912 165 349.192 164.784C348.484 164.568 347.926 164.304 347.518 163.992L348.238 162.624C348.646 162.9 349.15 163.134 349.75 163.326C350.35 163.518 350.962 163.614 351.586 163.614C352.39 163.614 352.966 163.5 353.314 163.272C353.674 163.044 353.854 162.726 353.854 162.318C353.854 162.018 353.746 161.784 353.53 161.616C353.314 161.448 353.026 161.322 352.666 161.238C352.318 161.154 351.928 161.082 351.496 161.022C351.064 160.95 350.632 160.866 350.2 160.77C349.768 160.662 349.372 160.518 349.012 160.338C348.652 160.146 348.364 159.888 348.148 159.564C347.932 159.228 347.824 158.784 347.824 158.232C347.824 157.656 347.986 157.152 348.31 156.72C348.634 156.288 349.09 155.958 349.678 155.73C350.278 155.49 350.986 155.37 351.802 155.37C352.426 155.37 353.056 155.448 353.692 155.604C354.34 155.748 354.868 155.958 355.276 156.234L354.538 157.602C354.106 157.314 353.656 157.116 353.188 157.008C352.72 156.9 352.252 156.846 351.784 156.846C351.028 156.846 350.464 156.972 350.092 157.224C349.72 157.464 349.534 157.776 349.534 158.16C349.534 158.484 349.642 158.736 349.858 158.916C350.086 159.084 350.374 159.216 350.722 159.312C351.082 159.408 351.478 159.492 351.91 159.564C352.342 159.624 352.774 159.708 353.206 159.816C353.638 159.912 354.028 160.05 354.376 160.23C354.736 160.41 355.024 160.662 355.24 160.986C355.468 161.31 355.582 161.742 355.582 162.282C355.582 162.858 355.414 163.356 355.078 163.776C354.742 164.196 354.268 164.526 353.656 164.766C353.044 164.994 352.312 165.108 351.46 165.108ZM366.5 165.144C365.54 165.144 364.622 165 363.746 164.712C362.87 164.412 362.18 164.028 361.676 163.56L362.342 162.156C362.822 162.576 363.434 162.924 364.178 163.2C364.922 163.476 365.696 163.614 366.5 163.614C367.232 163.614 367.826 163.53 368.282 163.362C368.738 163.194 369.074 162.966 369.29 162.678C369.506 162.378 369.614 162.042 369.614 161.67C369.614 161.238 369.47 160.89 369.182 160.626C368.906 160.362 368.54 160.152 368.084 159.996C367.64 159.828 367.148 159.684 366.608 159.564C366.068 159.444 365.522 159.306 364.97 159.15C364.43 158.982 363.932 158.772 363.476 158.52C363.032 158.268 362.672 157.932 362.396 157.512C362.12 157.08 361.982 156.528 361.982 155.856C361.982 155.208 362.15 154.614 362.486 154.074C362.834 153.522 363.362 153.084 364.07 152.76C364.79 152.424 365.702 152.256 366.806 152.256C367.538 152.256 368.264 152.352 368.984 152.544C369.704 152.736 370.328 153.012 370.855 153.372L370.262 154.812C369.722 154.452 369.152 154.194 368.552 154.038C367.952 153.87 367.37 153.786 366.806 153.786C366.098 153.786 365.516 153.876 365.06 154.056C364.604 154.236 364.268 154.476 364.052 154.776C363.848 155.076 363.746 155.412 363.746 155.784C363.746 156.228 363.884 156.582 364.16 156.846C364.448 157.11 364.814 157.32 365.258 157.476C365.714 157.632 366.212 157.776 366.752 157.908C367.292 158.028 367.832 158.166 368.372 158.322C368.924 158.478 369.422 158.682 369.866 158.934C370.322 159.186 370.688 159.522 370.964 159.942C371.24 160.362 371.378 160.902 371.378 161.562C371.378 162.198 371.204 162.792 370.855 163.344C370.508 163.884 369.968 164.322 369.236 164.658C368.516 164.982 367.604 165.144 366.5 165.144ZM377.769 165.108C376.953 165.108 376.233 164.958 375.609 164.658C374.997 164.358 374.517 163.902 374.169 163.29C373.833 162.666 373.665 161.886 373.665 160.95V155.46H375.393V160.752C375.393 161.688 375.615 162.39 376.059 162.858C376.515 163.326 377.151 163.56 377.967 163.56C378.567 163.56 379.089 163.44 379.533 163.2C379.977 162.948 380.319 162.588 380.559 162.12C380.799 161.64 380.919 161.064 380.919 160.392V155.46H382.647V165H381.009V162.426L381.279 163.11C380.967 163.746 380.499 164.238 379.875 164.586C379.251 164.934 378.549 165.108 377.769 165.108ZM397.871 155.37C398.639 155.37 399.317 155.52 399.905 155.82C400.493 156.12 400.949 156.576 401.273 157.188C401.609 157.8 401.777 158.574 401.777 159.51V165H400.049V159.708C400.049 158.784 399.833 158.088 399.401 157.62C398.969 157.152 398.363 156.918 397.583 156.918C397.007 156.918 396.503 157.038 396.071 157.278C395.639 157.518 395.303 157.872 395.063 158.34C394.835 158.808 394.721 159.39 394.721 160.086V165H392.993V159.708C392.993 158.784 392.777 158.088 392.345 157.62C391.925 157.152 391.319 156.918 390.527 156.918C389.963 156.918 389.465 157.038 389.033 157.278C388.601 157.518 388.265 157.872 388.025 158.34C387.785 158.808 387.665 159.39 387.665 160.086V165H385.937V155.46H387.593V157.998L387.323 157.35C387.623 156.726 388.085 156.24 388.709 155.892C389.333 155.544 390.059 155.37 390.887 155.37C391.799 155.37 392.585 155.598 393.245 156.054C393.905 156.498 394.337 157.176 394.541 158.088L393.839 157.8C394.127 157.068 394.631 156.48 395.351 156.036C396.071 155.592 396.911 155.37 397.871 155.37ZM416.89 155.37C417.658 155.37 418.336 155.52 418.924 155.82C419.512 156.12 419.968 156.576 420.292 157.188C420.628 157.8 420.796 158.574 420.796 159.51V165H419.068V159.708C419.068 158.784 418.852 158.088 418.42 157.62C417.988 157.152 417.382 156.918 416.602 156.918C416.026 156.918 415.522 157.038 415.09 157.278C414.658 157.518 414.322 157.872 414.082 158.34C413.854 158.808 413.74 159.39 413.74 160.086V165H412.012V159.708C412.012 158.784 411.796 158.088 411.364 157.62C410.944 157.152 410.338 156.918 409.546 156.918C408.982 156.918 408.484 157.038 408.052 157.278C407.62 157.518 407.284 157.872 407.044 158.34C406.804 158.808 406.684 159.39 406.684 160.086V165H404.956V155.46H406.612V157.998L406.342 157.35C406.642 156.726 407.104 156.24 407.728 155.892C408.352 155.544 409.078 155.37 409.906 155.37C410.818 155.37 411.604 155.598 412.264 156.054C412.924 156.498 413.356 157.176 413.56 158.088L412.858 157.8C413.146 157.068 413.65 156.48 414.37 156.036C415.09 155.592 415.93 155.37 416.89 155.37ZM429.898 165V162.984L429.808 162.606V159.168C429.808 158.436 429.592 157.872 429.16 157.476C428.74 157.068 428.104 156.864 427.252 156.864C426.688 156.864 426.136 156.96 425.596 157.152C425.056 157.332 424.6 157.578 424.228 157.89L423.508 156.594C424 156.198 424.588 155.898 425.272 155.694C425.968 155.478 426.694 155.37 427.45 155.37C428.758 155.37 429.766 155.688 430.474 156.324C431.182 156.96 431.536 157.932 431.536 159.24V165H429.898ZM426.766 165.108C426.058 165.108 425.434 164.988 424.894 164.748C424.366 164.508 423.958 164.178 423.67 163.758C423.382 163.326 423.238 162.84 423.238 162.3C423.238 161.784 423.358 161.316 423.598 160.896C423.85 160.476 424.252 160.14 424.804 159.888C425.368 159.636 426.124 159.51 427.072 159.51H430.096V160.752H427.144C426.28 160.752 425.698 160.896 425.398 161.184C425.098 161.472 424.948 161.82 424.948 162.228C424.948 162.696 425.134 163.074 425.506 163.362C425.878 163.638 426.394 163.776 427.054 163.776C427.702 163.776 428.266 163.632 428.746 163.344C429.238 163.056 429.592 162.636 429.808 162.084L430.15 163.272C429.922 163.836 429.52 164.286 428.944 164.622C428.368 164.946 427.642 165.108 426.766 165.108ZM434.734 165V155.46H436.39V158.052L436.228 157.404C436.492 156.744 436.936 156.24 437.56 155.892C438.184 155.544 438.952 155.37 439.864 155.37V157.044C439.792 157.032 439.72 157.026 439.648 157.026C439.588 157.026 439.528 157.026 439.468 157.026C438.544 157.026 437.812 157.302 437.272 157.854C436.732 158.406 436.462 159.204 436.462 160.248V165H434.734ZM442.794 168.6C442.338 168.6 441.894 168.522 441.462 168.366C441.03 168.222 440.658 168.006 440.346 167.718L441.084 166.422C441.324 166.65 441.588 166.824 441.876 166.944C442.164 167.064 442.47 167.124 442.794 167.124C443.214 167.124 443.562 167.016 443.838 166.8C444.114 166.584 444.372 166.2 444.612 165.648L445.206 164.334L445.386 164.118L449.13 155.46H450.822L446.196 165.954C445.92 166.626 445.608 167.154 445.26 167.538C444.924 167.922 444.552 168.192 444.144 168.348C443.736 168.516 443.286 168.6 442.794 168.6ZM445.062 165.306L440.706 155.46H442.506L446.214 163.956L445.062 165.306ZM242.34 180.096C241.844 180.096 241.38 179.992 240.948 179.784C240.516 179.576 240.164 179.276 239.892 178.884L240.588 178.068C240.82 178.388 241.08 178.636 241.368 178.812C241.664 178.98 241.988 179.064 242.34 179.064C243.3 179.064 243.78 178.496 243.78 177.36V172.644H240.744V171.6H244.968V177.3C244.968 178.236 244.744 178.936 244.296 179.4C243.856 179.864 243.204 180.096 242.34 180.096ZM251.192 180V178.656L251.132 178.404V176.112C251.132 175.624 250.988 175.248 250.7 174.984C250.42 174.712 249.996 174.576 249.428 174.576C249.052 174.576 248.684 174.64 248.324 174.768C247.964 174.888 247.66 175.052 247.412 175.26L246.932 174.396C247.26 174.132 247.652 173.932 248.108 173.796C248.572 173.652 249.056 173.58 249.56 173.58C250.432 173.58 251.104 173.792 251.576 174.216C252.048 174.64 252.284 175.288 252.284 176.16V180H251.192ZM249.104 180.072C248.632 180.072 248.216 179.992 247.856 179.832C247.504 179.672 247.232 179.452 247.04 179.172C246.848 178.884 246.752 178.56 246.752 178.2C246.752 177.856 246.832 177.544 246.992 177.264C247.16 176.984 247.428 176.76 247.796 176.592C248.172 176.424 248.676 176.34 249.308 176.34H251.324V177.168H249.356C248.78 177.168 248.392 177.264 248.192 177.456C247.992 177.648 247.892 177.88 247.892 178.152C247.892 178.464 248.016 178.716 248.264 178.908C248.512 179.092 248.856 179.184 249.296 179.184C249.728 179.184 250.104 179.088 250.424 178.896C250.752 178.704 250.988 178.424 251.132 178.056L251.36 178.848C251.208 179.224 250.94 179.524 250.556 179.748C250.172 179.964 249.688 180.072 249.104 180.072ZM257.812 173.58C258.332 173.58 258.788 173.68 259.18 173.88C259.58 174.08 259.892 174.384 260.116 174.792C260.34 175.2 260.452 175.716 260.452 176.34V180H259.3V176.472C259.3 175.856 259.148 175.392 258.844 175.08C258.548 174.768 258.128 174.612 257.584 174.612C257.176 174.612 256.82 174.692 256.516 174.852C256.212 175.012 255.976 175.248 255.808 175.56C255.648 175.872 255.568 176.26 255.568 176.724V180H254.416V173.64H255.52V175.356L255.34 174.9C255.548 174.484 255.868 174.16 256.3 173.928C256.732 173.696 257.236 173.58 257.812 173.58ZM267.859 180.096C267.267 180.096 266.691 180.004 266.131 179.82C265.579 179.636 265.127 179.388 264.775 179.076L265.327 178.128C265.607 178.392 265.971 178.608 266.419 178.776C266.867 178.944 267.347 179.028 267.859 179.028C268.483 179.028 268.967 178.896 269.311 178.632C269.663 178.36 269.839 177.996 269.839 177.54C269.839 177.1 269.671 176.748 269.335 176.484C269.007 176.212 268.483 176.076 267.763 176.076H267.091V175.236L269.587 172.164L269.755 172.644H265.159V171.6H270.703V172.416L268.219 175.476L267.595 175.104H267.991C269.007 175.104 269.767 175.332 270.271 175.788C270.783 176.244 271.039 176.824 271.039 177.528C271.039 178 270.923 178.432 270.691 178.824C270.459 179.216 270.107 179.528 269.635 179.76C269.171 179.984 268.579 180.096 267.859 180.096ZM273.574 180V172.08L274.09 172.644H271.678V171.6H274.762V180H273.574ZM279.69 180V179.184L283.11 175.884C283.414 175.596 283.638 175.344 283.782 175.128C283.934 174.904 284.034 174.7 284.082 174.516C284.138 174.324 284.166 174.14 284.166 173.964C284.166 173.532 284.014 173.192 283.71 172.944C283.406 172.696 282.962 172.572 282.378 172.572C281.93 172.572 281.526 172.648 281.166 172.8C280.806 172.944 280.494 173.172 280.23 173.484L279.414 172.776C279.734 172.368 280.162 172.056 280.698 171.84C281.242 171.616 281.838 171.504 282.486 171.504C283.07 171.504 283.578 171.6 284.01 171.792C284.442 171.976 284.774 172.244 285.006 172.596C285.246 172.948 285.366 173.364 285.366 173.844C285.366 174.116 285.33 174.384 285.258 174.648C285.186 174.912 285.05 175.192 284.85 175.488C284.65 175.784 284.362 176.116 283.986 176.484L280.938 179.424L280.65 178.956H285.726V180H279.69ZM290.133 180.096C289.477 180.096 288.889 179.928 288.369 179.592C287.857 179.256 287.449 178.768 287.145 178.128C286.849 177.488 286.701 176.712 286.701 175.8C286.701 174.888 286.849 174.112 287.145 173.472C287.449 172.832 287.857 172.344 288.369 172.008C288.889 171.672 289.477 171.504 290.133 171.504C290.781 171.504 291.365 171.672 291.885 172.008C292.405 172.344 292.813 172.832 293.109 173.472C293.405 174.112 293.553 174.888 293.553 175.8C293.553 176.712 293.405 177.488 293.109 178.128C292.813 178.768 292.405 179.256 291.885 179.592C291.365 179.928 290.781 180.096 290.133 180.096ZM290.133 179.028C290.573 179.028 290.957 178.908 291.285 178.668C291.621 178.428 291.881 178.068 292.065 177.588C292.257 177.108 292.353 176.512 292.353 175.8C292.353 175.088 292.257 174.492 292.065 174.012C291.881 173.532 291.621 173.172 291.285 172.932C290.957 172.692 290.573 172.572 290.133 172.572C289.693 172.572 289.305 172.692 288.969 172.932C288.633 173.172 288.369 173.532 288.177 174.012C287.993 174.492 287.901 175.088 287.901 175.8C287.901 176.512 287.993 177.108 288.177 177.588C288.369 178.068 288.633 178.428 288.969 178.668C289.305 178.908 289.693 179.028 290.133 179.028ZM294.573 180V179.184L297.993 175.884C298.297 175.596 298.521 175.344 298.665 175.128C298.817 174.904 298.917 174.7 298.965 174.516C299.021 174.324 299.049 174.14 299.049 173.964C299.049 173.532 298.897 173.192 298.593 172.944C298.289 172.696 297.845 172.572 297.261 172.572C296.813 172.572 296.409 172.648 296.049 172.8C295.689 172.944 295.377 173.172 295.113 173.484L294.297 172.776C294.617 172.368 295.045 172.056 295.581 171.84C296.125 171.616 296.721 171.504 297.369 171.504C297.953 171.504 298.461 171.6 298.893 171.792C299.325 171.976 299.657 172.244 299.889 172.596C300.129 172.948 300.249 173.364 300.249 173.844C300.249 174.116 300.213 174.384 300.141 174.648C300.069 174.912 299.933 175.192 299.733 175.488C299.533 175.784 299.245 176.116 298.869 176.484L295.821 179.424L295.533 178.956H300.609V180H294.573ZM305.112 180.096C304.368 180.096 303.732 179.932 303.204 179.604C302.676 179.276 302.272 178.804 301.992 178.188C301.72 177.564 301.584 176.804 301.584 175.908C301.584 174.956 301.752 174.152 302.088 173.496C302.424 172.84 302.892 172.344 303.492 172.008C304.092 171.672 304.78 171.504 305.556 171.504C305.956 171.504 306.336 171.544 306.696 171.624C307.064 171.704 307.38 171.828 307.644 171.996L307.188 172.932C306.972 172.78 306.724 172.676 306.444 172.62C306.172 172.564 305.884 172.536 305.58 172.536C304.724 172.536 304.044 172.804 303.54 173.34C303.036 173.868 302.784 174.656 302.784 175.704C302.784 175.872 302.792 176.072 302.808 176.304C302.824 176.536 302.864 176.764 302.928 176.988L302.52 176.58C302.64 176.212 302.828 175.904 303.084 175.656C303.348 175.4 303.66 175.212 304.02 175.092C304.388 174.964 304.784 174.9 305.208 174.9C305.768 174.9 306.264 175.004 306.696 175.212C307.128 175.42 307.468 175.716 307.716 176.1C307.964 176.476 308.088 176.924 308.088 177.444C308.088 177.98 307.956 178.448 307.692 178.848C307.428 179.248 307.072 179.556 306.624 179.772C306.176 179.988 305.672 180.096 305.112 180.096ZM305.064 179.124C305.432 179.124 305.752 179.056 306.024 178.92C306.304 178.784 306.524 178.596 306.684 178.356C306.844 178.108 306.924 177.82 306.924 177.492C306.924 176.996 306.752 176.604 306.408 176.316C306.064 176.02 305.596 175.872 305.004 175.872C304.62 175.872 304.284 175.944 303.996 176.088C303.708 176.232 303.48 176.428 303.312 176.676C303.152 176.916 303.072 177.192 303.072 177.504C303.072 177.792 303.148 178.06 303.3 178.308C303.452 178.548 303.676 178.744 303.972 178.896C304.268 179.048 304.632 179.124 305.064 179.124Z" fill="#E53333"/>
<g filter="url(#filter0_f_281_2)">
<rect x="36.9922" y="11.2097" width="109.29" height="12.4508" rx="6.22539" fill="#F0E8D5"/>
<rect x="167.033" y="11.4351" width="502" height="12" rx="6" fill="#F0E8D5"/>
<rect x="42.5254" y="35.4197" width="109.29" height="12.4508" rx="6.22539" fill="#F0E8D5"/>
<rect x="172.566" y="35.645" width="502" height="12" rx="6" fill="#F0E8D5"/>
<rect x="28" y="59.6294" width="109.29" height="12.4508" rx="6.22539" fill="#F0E8D5"/>
<rect x="158.041" y="59.8547" width="502" height="12" rx="6" fill="#F0E8D5"/>
<rect x="49.4434" y="84.114" width="109.29" height="12.4508" rx="6.22539" fill="#F0E8D5"/>
<rect x="179.484" y="83.8394" width="502" height="13" rx="6.5" fill="#F0E8D5"/>
</g>
<defs>
<filter id="filter0_f_281_2" x="26.5" y="-14.5" width="656.484" height="112.839" filterUnits="userSpaceOnUse" color-interpolation-filters="sRGB">
<feFlood flood-opacity="0" result="BackgroundImageFix"/>
<feBlend mode="normal" in="SourceGraphic" in2="BackgroundImageFix" result="shape"/>
<feGaussianBlur stdDeviation="0.75" result="effect1_foregroundBlur_281_2"/>
</filter>
</defs>
</svg>
