<svg width="350" height="217" viewBox="0 0 350 217" fill="none" xmlns="http://www.w3.org/2000/svg">
<path d="M149.471 19.3901L171.428 41.3462L179.465 71.3413L171.428 101.335L149.472 123.292L119.478 131.329L89.4824 123.292L67.5264 101.334L59.4893 71.3413L67.5264 41.3472L89.4834 19.3901L119.478 11.353L149.471 19.3901Z" fill="#FBF5E5" stroke="#DAA196" stroke-width="0.863354"/>
<g clip-path="url(#clip0_275_5)">
<path d="M103.502 98.7221V73.0596L95.543 65.7785L88.4062 61.738V94.1933C88.4062 96.6991 90.4365 98.7221 92.935 98.7221H103.502Z" fill="#4285F4"/>
<path d="M139.729 98.7228H150.295C152.801 98.7228 154.824 96.6923 154.824 94.1941V61.739L146.741 66.3669L139.729 73.0603V98.7228Z" fill="#34A853"/>
<path d="M103.501 73.0601L102.418 63.033L103.501 53.436L121.615 67.0221L139.73 53.436L140.941 62.5148L139.73 73.0601L121.615 86.6461L103.501 73.0601Z" fill="#EA4335"/>
<path d="M139.729 53.4359V73.06L154.824 61.7384V55.7002C154.824 50.0999 148.431 46.9073 143.956 50.2659L139.729 53.4359Z" fill="#FBBC04"/>
<path d="M88.4062 61.7386L95.349 66.9458L103.502 73.0601V53.436L99.2748 50.266C94.7914 46.9072 88.4062 50.1 88.4062 55.7V61.7386Z" fill="#C5221F"/>
</g>
<path d="M241.471 15.3901L263.428 37.3462L271.465 67.3413L263.428 97.3354L241.472 119.292L211.478 127.329L181.482 119.292L159.526 97.3345L151.489 67.3413L159.526 37.3472L181.483 15.3901L211.478 7.35303L241.471 15.3901Z" fill="#FBF5E5" stroke="#DAA196" stroke-width="0.863354"/>
<path d="M198.662 75.5779C198.662 78.4454 196.323 80.7876 193.455 80.7876C190.587 80.7876 188.246 78.4454 188.246 75.5779C188.246 72.7103 190.588 70.3682 193.456 70.3682H198.662L198.662 75.5779ZM201.287 75.5779C201.287 72.7103 203.629 70.3682 206.496 70.3682C209.364 70.3682 211.706 72.7099 211.706 75.5779V88.6188C211.706 91.4863 209.364 93.8285 206.496 93.8285C203.629 93.8285 201.287 91.4863 201.287 88.6188V75.5779Z" fill="#DE1C59"/>
<path d="M206.496 54.6625C203.629 54.6625 201.287 52.3238 201.287 49.4559C201.287 46.588 203.629 44.2466 206.496 44.2466C209.364 44.2466 211.706 46.5887 211.706 49.4563V54.6629L206.496 54.6625ZM206.496 57.2871C209.364 57.2871 211.706 59.6292 211.706 62.4968C211.706 65.3643 209.364 67.7065 206.496 67.7065H193.455C190.588 67.7065 188.246 65.3647 188.246 62.4968C188.246 59.6292 190.588 57.2871 193.456 57.2871H206.496Z" fill="#35C5F0"/>
<path d="M227.411 62.4968C227.411 59.6292 229.75 57.2871 232.618 57.2871C235.486 57.2871 237.827 59.6292 237.827 62.4968C237.827 65.3643 235.485 67.7065 232.618 67.7065H227.411V62.4968ZM224.787 62.4968C224.787 65.3643 222.444 67.7065 219.577 67.7065C216.709 67.7065 214.367 65.3647 214.367 62.4968V49.4559C214.367 46.5883 216.709 44.2466 219.577 44.2466C222.444 44.2466 224.787 46.5887 224.787 49.4563V62.4968Z" fill="#2EB57D"/>
<path d="M219.577 83.4122C222.444 83.4122 224.787 85.7508 224.787 88.6188C224.787 91.4867 222.444 93.8285 219.577 93.8285C216.709 93.8285 214.367 91.4863 214.367 88.6188V83.4122H219.577ZM219.577 80.7876C216.709 80.7876 214.367 78.4454 214.367 75.5779C214.367 72.7103 216.709 70.3682 219.577 70.3682H232.618C235.485 70.3682 237.827 72.7099 237.827 75.5779C237.827 78.4454 235.485 80.7876 232.618 80.7876H219.577Z" fill="#EBB02E"/>
<path d="M96.4707 89.3901L118.428 111.346L126.465 141.341L118.428 171.335L96.4717 193.292L66.4775 201.329L36.4824 193.292L14.5264 171.334L6.48926 141.341L14.5264 111.347L36.4834 89.3901L66.4775 81.353L96.4707 89.3901Z" fill="#FBF5E5" stroke="#DAA196" stroke-width="0.863354"/>
<g clip-path="url(#clip1_275_5)">
<path d="M44.0612 142.738C44.0601 146.945 45.1594 151.053 47.2497 154.674L43.8613 167.045L56.522 163.726C60.0238 165.632 63.9473 166.631 67.9344 166.631H67.9448C81.1069 166.631 91.8211 155.921 91.8267 142.756C91.8292 136.377 89.3473 130.379 84.8378 125.866C80.3292 121.353 74.3328 118.867 67.9439 118.864C54.7803 118.864 44.0669 129.574 44.0614 142.738" fill="url(#paint0_linear_275_5)"/>
<path d="M43.2096 142.73C43.2083 147.088 44.347 151.343 46.5118 155.094L43.002 167.909L56.1166 164.47C59.7301 166.441 63.7986 167.479 67.9385 167.481H67.9492C81.5834 167.481 92.6825 156.385 92.6883 142.75C92.6906 136.141 90.1194 129.927 85.4489 125.253C80.7778 120.579 74.567 118.003 67.9492 118C54.3126 118 43.2151 129.094 43.2096 142.73ZM51.0199 154.448L50.5302 153.671C48.4717 150.398 47.3852 146.615 47.3868 142.731C47.391 131.398 56.6149 122.177 67.9569 122.177C73.4496 122.179 78.6115 124.32 82.4941 128.205C86.3764 132.09 88.5127 137.255 88.5114 142.748C88.5063 154.082 79.2823 163.304 67.9492 163.304H67.941C64.2508 163.302 60.6317 162.311 57.4754 160.438L56.7243 159.993L48.9418 162.033L51.0199 154.448Z" fill="url(#paint1_linear_275_5)"/>
<path d="M61.7663 132.391C61.3032 131.362 60.8159 131.341 60.3755 131.323C60.0149 131.308 59.6026 131.309 59.1908 131.309C58.7785 131.309 58.1087 131.464 57.5426 132.082C56.9759 132.701 55.3789 134.196 55.3789 137.237C55.3789 140.278 57.594 143.218 57.9028 143.63C58.212 144.043 62.1791 150.483 68.4621 152.961C73.6839 155.02 74.7465 154.61 75.8798 154.507C77.0132 154.404 79.5371 153.012 80.0521 151.569C80.5674 150.126 80.5674 148.889 80.4129 148.63C80.2584 148.372 79.8461 148.218 79.228 147.909C78.6098 147.6 75.5706 146.104 75.004 145.898C74.4373 145.692 74.0253 145.589 73.613 146.208C73.2008 146.826 72.017 148.218 71.6562 148.63C71.2958 149.043 70.935 149.095 70.317 148.785C69.6985 148.475 67.7077 147.823 65.3459 145.718C63.5083 144.079 62.2676 142.056 61.907 141.437C61.5464 140.819 61.8684 140.484 62.1784 140.176C62.4561 139.899 62.7967 139.454 63.1061 139.093C63.4143 138.732 63.5172 138.475 63.7233 138.063C63.9296 137.65 63.8264 137.289 63.6721 136.98C63.5172 136.671 62.316 133.613 61.7663 132.391Z" fill="white"/>
</g>
<path d="M206.471 93.3901L228.428 115.346L236.465 145.341L228.428 175.335L206.472 197.292L176.478 205.329L146.482 197.292L124.526 175.334L116.489 145.341L124.526 115.347L146.483 93.3901L176.478 85.353L206.471 93.3901Z" fill="#FBF5E5" stroke="#DAA196" stroke-width="0.863354"/>
<g clip-path="url(#clip2_275_5)">
<path d="M191.338 122H164.736C158.254 122 153 127.254 153 133.736V160.338C153 166.82 158.254 172.075 164.736 172.075H191.338C197.82 172.075 203.075 166.82 203.075 160.338V133.736C203.075 127.254 197.82 122 191.338 122Z" fill="#5865F2"/>
<mask id="mask0_275_5" style="mask-type:luminance" maskUnits="userSpaceOnUse" x="158" y="131" width="40" height="32">
<path d="M158.477 131.976H197.597V162.281H158.477V131.976Z" fill="white"/>
</mask>
<g mask="url(#mask0_275_5)">
<path d="M191.594 134.674C189.057 133.51 186.381 132.68 183.631 132.205C183.606 132.2 183.58 132.203 183.557 132.214C183.534 132.225 183.515 132.243 183.503 132.265C183.159 132.877 182.778 133.675 182.511 134.302C179.504 133.852 176.513 133.852 173.568 134.302C173.301 133.661 172.906 132.877 172.561 132.265C172.548 132.243 172.529 132.226 172.506 132.215C172.483 132.204 172.458 132.201 172.433 132.205C169.683 132.679 167.006 133.509 164.47 134.674C164.448 134.684 164.43 134.7 164.418 134.719C159.346 142.296 157.957 149.687 158.638 156.986C158.642 157.022 158.661 157.055 158.689 157.078C162.035 159.535 165.276 161.027 168.458 162.016C168.482 162.023 168.509 162.023 168.533 162.015C168.558 162.007 168.579 161.991 168.595 161.971C169.347 160.943 170.018 159.86 170.593 158.72C170.601 158.705 170.606 158.688 170.607 158.67C170.607 158.653 170.605 158.635 170.598 158.619C170.592 158.603 170.582 158.588 170.569 158.576C170.557 158.563 170.542 158.554 170.525 158.548C169.461 158.144 168.448 157.652 167.474 157.093C167.456 157.083 167.441 157.068 167.43 157.051C167.42 157.033 167.413 157.013 167.412 156.993C167.411 156.972 167.415 156.952 167.423 156.933C167.432 156.914 167.445 156.898 167.461 156.885C167.667 156.732 167.869 156.573 168.067 156.41C168.085 156.396 168.106 156.387 168.128 156.384C168.151 156.381 168.173 156.384 168.194 156.393C174.596 159.316 181.528 159.316 187.854 156.393C187.875 156.383 187.898 156.38 187.921 156.383C187.943 156.385 187.965 156.394 187.982 156.409C188.181 156.573 188.384 156.731 188.59 156.885C188.606 156.898 188.62 156.914 188.628 156.933C188.637 156.951 188.641 156.972 188.64 156.992C188.639 157.013 188.633 157.033 188.622 157.05C188.612 157.068 188.597 157.083 188.579 157.093C187.604 157.663 186.583 158.149 185.526 158.546C185.51 158.553 185.495 158.562 185.482 158.575C185.47 158.587 185.46 158.602 185.454 158.619C185.448 158.635 185.445 158.652 185.446 158.67C185.447 158.688 185.452 158.705 185.46 158.72C186.045 159.851 186.712 160.937 187.456 161.969C187.472 161.99 187.493 162.006 187.518 162.014C187.542 162.023 187.569 162.023 187.594 162.016C190.79 161.027 194.032 159.535 197.378 157.078C197.392 157.067 197.404 157.054 197.413 157.038C197.422 157.023 197.427 157.006 197.429 156.988C198.244 148.549 196.062 141.219 191.645 134.721C191.634 134.7 191.616 134.683 191.594 134.674ZM171.549 152.542C169.622 152.542 168.033 150.772 168.033 148.599C168.033 146.426 169.591 144.656 171.549 144.656C173.523 144.656 175.096 146.441 175.065 148.599C175.065 150.772 173.508 152.542 171.549 152.542ZM184.548 152.542C182.621 152.542 181.033 150.772 181.033 148.599C181.033 146.426 182.59 144.656 184.548 144.656C186.522 144.656 188.095 146.441 188.064 148.599C188.064 150.772 186.522 152.542 184.548 152.542Z" fill="white"/>
</g>
</g>
<path d="M309.471 89.3901L331.428 111.346L339.465 141.341L331.428 171.335L309.472 193.292L279.478 201.329L249.482 193.292L227.526 171.334L219.489 141.341L227.526 111.347L249.483 89.3901L279.478 81.353L309.471 89.3901Z" fill="#FBF5E5" stroke="#DAA196" stroke-width="0.863354"/>
<g clip-path="url(#clip3_275_5)">
<path d="M265.303 126.78C266.859 128.044 267.443 127.948 270.369 127.752L297.941 126.097C298.525 126.097 298.039 125.513 297.845 125.417L293.263 122.106C292.387 121.426 291.216 120.646 288.975 120.84L262.279 122.788C261.307 122.884 261.111 123.373 261.499 123.761L265.303 126.78ZM266.957 133.206V162.216C266.957 163.774 267.735 164.359 269.49 164.26L299.792 162.508C301.546 162.412 301.742 161.339 301.742 160.073V131.257C301.742 129.993 301.256 129.311 300.182 129.407L268.516 131.257C267.347 131.355 266.957 131.942 266.957 133.206ZM296.871 134.76C297.065 135.637 296.871 136.513 295.994 136.613L294.534 136.905V158.32C293.265 159.003 292.097 159.393 291.122 159.393C289.562 159.393 289.172 158.905 288.003 157.446L278.454 142.453V156.958L281.475 157.642C281.475 157.642 281.475 159.395 279.038 159.395L272.315 159.783C272.121 159.395 272.315 158.421 272.997 158.227L274.75 157.74V138.56L272.319 138.364C272.123 137.487 272.611 136.223 273.974 136.125L281.185 135.639L291.124 150.826V137.389L288.589 137.099C288.395 136.027 289.174 135.249 290.148 135.153L296.871 134.76ZM260.039 120.159L287.809 118.115C291.218 117.823 292.097 118.017 294.24 119.575L303.105 125.805C304.565 126.876 305.054 127.168 305.054 128.336V162.508C305.054 164.649 304.275 165.917 301.548 166.109L269.296 168.058C267.251 168.156 266.275 167.864 265.203 166.499L258.674 158.028C257.506 156.47 257.02 155.303 257.02 153.939V123.565C257.02 121.814 257.8 120.351 260.039 120.159Z" fill="black"/>
</g>
<defs>
<linearGradient id="paint0_linear_275_5" x1="2442.13" y1="4936.99" x2="2442.13" y2="118.864" gradientUnits="userSpaceOnUse">
<stop stop-color="#1FAF38"/>
<stop offset="1" stop-color="#60D669"/>
</linearGradient>
<linearGradient id="paint1_linear_275_5" x1="2527.32" y1="5108.9" x2="2527.32" y2="118" gradientUnits="userSpaceOnUse">
<stop stop-color="#F9F9F9"/>
<stop offset="1" stop-color="white"/>
</linearGradient>
<clipPath id="clip0_275_5">
<rect width="66.4322" height="50.0745" fill="white" transform="translate(88.3984 48.8945)"/>
</clipPath>
<clipPath id="clip1_275_5">
<rect width="49.69" height="50.0745" fill="white" transform="translate(43 118)"/>
</clipPath>
<clipPath id="clip2_275_5">
<rect width="50.0745" height="50.0745" fill="white" transform="translate(153 122)"/>
</clipPath>
<clipPath id="clip3_275_5">
<rect width="50.0745" height="50.0745" fill="white" transform="translate(256 118)"/>
</clipPath>
</defs>
</svg>
